<mxfile host="app.diagrams.net" agent="Mozilla/5.0 (Windows NT 10.0; Win64; x64) AppleWebKit/537.36 (KHTML, like Gecko) Chrome/123.0.0.0 Safari/537.36" version="24.7.13" pages="2">
  <diagram name="General" id="DV4ykScKGLcrfLjsMl9M">
    <mxGraphModel grid="0" page="0" gridSize="10" guides="0" tooltips="1" connect="1" arrows="1" fold="1" pageScale="1" pageWidth="827" pageHeight="1169" background="none" math="0" shadow="1">
      <root>
        <mxCell id="0" />
        <mxCell id="1" style="" parent="0" />
        <mxCell id="zcAJipV-lXxgZnZTuTz_-13" value="" style="rounded=0;whiteSpace=wrap;html=1;labelBackgroundColor=none;sketch=1;curveFitting=1;jiggle=2;" vertex="1" parent="1">
          <mxGeometry x="14" y="20" width="995" height="610" as="geometry" />
        </mxCell>
        <mxCell id="zcAJipV-lXxgZnZTuTz_-6" value="«Sistema de asistencias»&lt;br&gt;&lt;b&gt;AsisstoBy Terrawind&lt;/b&gt;" style="rounded=1;whiteSpace=wrap;html=1;dashed=1;verticalAlign=bottom;arcSize=3;labelBackgroundColor=none;sketch=1;curveFitting=1;jiggle=2;" vertex="1" parent="1">
          <mxGeometry x="240" y="27" width="743" height="571" as="geometry" />
        </mxCell>
        <mxCell id="mdb3Ze5MWpPQNfukh6b--17" value="«Back End»" style="rounded=1;whiteSpace=wrap;html=1;dashed=1;verticalAlign=bottom;arcSize=5;labelBackgroundColor=none;sketch=1;curveFitting=1;jiggle=2;" vertex="1" parent="1">
          <mxGeometry x="246" y="33" width="327" height="531" as="geometry" />
        </mxCell>
        <mxCell id="mdb3Ze5MWpPQNfukh6b--15" style="rounded=0;orthogonalLoop=1;jettySize=auto;html=1;dashed=1;labelBackgroundColor=none;fontColor=default;sketch=1;curveFitting=1;jiggle=2;" edge="1" parent="1" source="mdb3Ze5MWpPQNfukh6b--1" target="mdb3Ze5MWpPQNfukh6b--13">
          <mxGeometry relative="1" as="geometry" />
        </mxCell>
        <mxCell id="mdb3Ze5MWpPQNfukh6b--7" value="Migración SAP" style="shape=image;verticalLabelPosition=middle;labelBackgroundColor=none;verticalAlign=middle;aspect=fixed;imageAspect=0;image=data:image/png,iVBORw0KGgoAAAANSUhEUgAAAG0AAABDCAYAAACWXosQAAAAAXNSR0IArs4c6QAAAARnQU1BAACxjwv8YQUAAAAJcEhZcwAADsMAAA7DAcdvqGQAAAtgSURBVHhe7ZoLdFTFGcf/G8ibkJAHCQkkEB6KAhFEbaW2oqUeoS3iq40eEURthaqpaKu1tT2eFh8QQRGQ8lCQkPKSamxQAUMSImISifHwJgGCeRPIbjabTbKPfnN3brJ39+4jyQZyc+7vnMk338zc7z7+M3Nn7kYDwEpJRUH4cauiIFTRFIgqmgJRRVMgqmgKRBVNgaiiKRBVNAWiiqZAVNEUiCqaAlFFUyDSD8bZjfRH/X581Zg5hGfcIxlpGqsVfqSZmDR2edXvXV+TuYyr4BnJSPP7uKGzxN6KOJar9T6pt25LhzVjCTneIR4qMGD3xc5YLBhlVL93feuOdFi2vkYl3iPGEBi4s47nVK4Elp1vwfKf17nnPRLR/LfX8pxKb2PZtRzmbV0XjCEVLbNaKBARhrEtK6D6vvHNu1fAvP0Noaw7sBgslkDglkoqoSJh8lVtb1jzx2/DtONN/sS7B0WyE23TBZ5zzaCBGtwSE4iYID8hBQ7QoLzJxJMZunYLb6niiPmTd2DatZR73UciWtD7FR0F9jbUX4PU5FDMSgzGXQlBVOKaBqNFEPCLSiN2nTPgRGO7Uzw5+8mMGMzwEDv4gwtu4xjmjaC/njmvN1EyC7aiw5qQW9PqNn5PrCmLBPvI+72YO8SYAsHrz/FcJy9PiUDq6FAkDx7IS7rG8cvt+OhsMyUDjpOAcvj7aaCdn8g919ydXYvcaiP3nDEsSOK57sHE+/R8C7ae0ePIxTZe2nNMn65E+3/TuddzpF9EzFZoLJTI+pFdMjUCL08O77ZgjPFD/AXhX6HkGF/0F40P463d8ztqJ3e86PeUpEEDsej6MBTMHoZ3p0U6xe+Ob8ryrWAM6Qdjsxkak4VOZsGHd8QgLSWcV/ScZcWXJfEhWJv/1ATvRLtnVIjs8aLvSx67Ngxb7oyWxndx/a7q29kI+9i3gjEkogm9g9LvqbfNoSnRV7xT0oiSWmNHfI2FboznUyIDMIJ6uLc8SNdlf7x9PF8zZ/QgvHoLjTgeX+767X37+vbsd9Ge9RaP5FscRpoFYQOAtMnefW32hhaTFcu+abD1PkqOduGkwbyldzw5kdrLxBFsL7CIZpsbovzlz+fCtu1ZhbZPl/MIvkeyEBm8/AR+OiIUWfcN5yXyvP51AzKO6VChYy9rDcIDNYgO9qfkh1+NCcP8ieEYFGDrDy/l1mP1kUtCO7l1lTbtGrJdY8Sa09C1shjSeNq0cWRdM2sn29JoEEwDOzkiAClDA3Hb8BAkDva3NXDBX/LqsOpb8Wcr+fsQbeve99CavYLyvYfTSLspNpA78mQc1eK1gjpUXG4V2rOkNZhQ1mDE4R+a8dcDtUhYeRKz6QHtKdNjdVFDRzvH9Jtx3r3LHHlkvG20OSUPHDyvF9LesiasLb6EhXuqMHFdGQ5eMPAW8kwZSlsRufM5pNbP1/S6YAyJaOz3nTuS3L/L2tkKidqx397c2dxzeqTupn2Vm3aP3+B6Gi6qbuE5Z9hxcvE84eo6Xs13/6F87JAA2ePsbds+Euyzt/kRvYvTSKtodL8/mTcpAi/+OJqWx/Tyo/ZsDheT6Dtaufo4mkpvjg/mUZ3ZX67nOWfY1DYugqY0Hq8jvifEdg628EIzqprk95CMhLCBsseJtnXvGhg/e4e37n0kovlRr7mg9bypfHFaDA4tGIPVM+Pxi+RBvLfR6smFlat/ckokjybPvjIdz8nz8IRwp/iecLwu++NNtOpzRai/n+xxzLZ+uRbGL1byllcGp5G2o5QtGjwTQjfy0MQh2PZAEvbPTcbCqVGIC7GNPm/Soymup8YT9UYUU+8/Vuf668fjU6Kc43rCsT1P10UFIDE8gDdy5sTFzve3fTLuX4uWKywYQ/pOo952tqEN2Se1vMQ7JseH4J8/H4aCJ8Zh6V0JmEYrMmG+Z3sWR0v3e3vSIESFuN6b5Z7VC+33nXE92kJpdXpbIu3Z7OJ7Qjy/43UtYB3ADaepE3W058e35qxDy753eYsri5NobGP45oEaaI1mXuo9Q4IHYAGNuKxHx2Bn6ig8PIkWDNQjhbiipfjzPEyN+09phfZfnnY/RaY6xPeEeP5gPw0mRAfiITp+7ewRmH+je9FOMdHsrt94YB0M+6+OYAxxkyEQ/cq3PAdMp/3W8l8nIsHNtOENS6kDvJlT3XEm9rNS3T8m2yplqLjchhtXHO1oX/jsdRgZ6XobEvP3I7YMta93E7cnzM0sxx42+9D1GPLXw5CzmtdcHZzeaaCexFIO9fbUzWewy8t3nCteuD0Of6Ikvgc89eoDbAHCroG333fa/VR974SIzva9wIbD9dhzjH03tcCQRyPsKgvGkE6PbFUkTAG0MqJ0osaAp7aVY/7WMhRWuF6Ce+KF6cMwPTlMiD93ajQvlSeXRBLPz9rneZgif3tDVEd7X7OXRtdLn5wX4rfkb4DhwBpec3WRika9SRCN9VpumZ/9fQN+ueY4Htl0ChmF9ajXu97TuOK+lEhcExWI64eF8BJn6mivlEsPyv78BbQYqRE+l8kzfexgxLBVK7X3JaVVBjy3s1y4f8PBDWjO7RuCMRxGGiX2sBwtPUNm9x5rxOKdZzFtaSme2V6Oz9m04SX304iYe3MM9+Rho0zfYpKcv5l8T6PtgRTbaPMF5ReN+FtWBe5eeRT1unYYCjaiOe89Xts3kCxEYp8/xHPeM55GzqyJkXh+hvuPzAxjuwVBtL9zRUNzO6oa24T0fVUzEmkBkhQZhCQaoXGDXS+IjtKouHN5KWqW/oiXdA19qxnltELcc/QSNhbUQksdhdH89QfQH1wr5PsSEtHiFnddNJF5t8bitXtHce/Kc2d6KfYvnsQ9edK/+IHnbB2kjDbv5y9RaqDNswP6w31TMIZUtD9+xXM2HvtJHP5Hq8daN+8UkeSYIBS81DtLbm9YnVOFhdPjuSfPsOe865SCYF/9m3t9D+fVI0nI7MwJkfgXjZzstIlYMmckbhppW/2J9Y726TsSeJSrw/1T3b8vGe6uX7TNfVwwhmSkDXvmIM8BmU9dj59dS3sgO/JPNqLycisq6Z1ztr4Fl5tNGBkdhFm0yLh1jO/+n6S3iH+2gOfk0RduQtOhddzru0hFe/qgUHDPjTFY9aj7X4GVSPwzBcL9ibAbF/2mImUIxpCIFr8oj0o02J02CTeP7tr/bvSEP2eeEX4aGR0bjDGxIRg9NFjIn6PRzFZ1zJ6sNtCVWvFG6lh+VNdJ+EO+cH+O/67dVLQZTV8rQzCGVLSFeUilVeCyh6/sKBvOHiYhPksRdmF2rlBfueo27nWdhEX5TvH1RR9Cd1g5gjGkmyZ6KmazFV+dYv/E0nPyjnvefJdW6GFlG2OWmCpkO3ye7OtZ+27jEF9fuFlxgjGcVo87DtXiQdqospRZUIN2E91gFykq12HRhuPIKq7nJa7JyK/mKzfb+Vn37/SpgcS3Cu27i338pmIaYd+s5zXKQjI9JjyZQwUaKqAlMLejhoZgzi1DMSIqGInRgRhONsHhp5KmFhNOVDbjTI0BJeea6MFWCcevXHAtYiPc/3fXg+nfSc7njd2+OIUf3TUeSC8RjtcdIcEKN/BS5SERbfgTOTznUEHY+4H+fiRiEGLCA3DhohE/NBjdtmf0Fb+pZAu0ChaMIbm34Y9/yXP9Ex0JpivayD3lIn2n9ePUVJLRLwRjSEQTVlX0srYKL2yyEl+59bojNCUWKXtKtMdppAmW7pV5Ul+Z9ToaYdri/jHCRJz2aeJ+SPi/C4X7/VEwhlQ0gvVOW7L1W6X6uu+2Qvtt/xOM4TzShI7Ke6tCfe13NML6qWAM53ca3bjwTlCo1ZUywd6ngv4L04ndsoqCcHqnqfR9VNEUiCqaAlFFUyCqaIoD+D8J32I9ImwVmgAAAABJRU5ErkJggg==;labelPosition=left;align=right;fontStyle=1;sketch=1;curveFitting=1;jiggle=2;" vertex="1" parent="1">
          <mxGeometry x="35.99999999999997" y="260" width="48.8" height="30" as="geometry" />
        </mxCell>
        <mxCell id="mdb3Ze5MWpPQNfukh6b--9" value="" style="shape=image;verticalLabelPosition=bottom;labelBackgroundColor=none;verticalAlign=top;aspect=fixed;imageAspect=0;image=data:image/png,iVBORw0KGgoAAAANSUhEUgAAAIMAAAAyCAYAAAB/C2i2AAAAAXNSR0IArs4c6QAAAARnQU1BAACxjwv8YQUAAAAJcEhZcwAADsMAAA7DAcdvqGQAAAiZSURBVHhe7ZsPSJtnHse/d3IqnuhEhp0U7BB07GpE2rqLaJaxLgFnhFYjszTUgcq4MxxX3biC43qcXOGqgza23DUcerPUI6lXLtkKph2XRjGs0xVtV1RaprDZeuiszlkjk/ee930f38Sq8X2Tt2Wmzwde/L2/xNf3z/d9vr/njz/jCGAwCD+nPxkMJgZGECYGhgQTA0OCiYEhwcTAkGBiYEgwMTAkmBgYEkwMDAkmBoYEEwNDgomBIaHOrGVgEfNzMxi7N4tlmkJiOnKzM5GRFk8T8lleWERgle5ESEJKMhLj6A7P6grmF1bojhrEI3Xt2kKPnZCM1CQxVMwSuY8B8jOOHDtF+X0TCDmXDfdgG6ISw3R/N1rPXIJrcBbTNLeBpHQYjCaYj5TBVJAp4+Rm4XzXhDov3Y2QZucAmvbTHZ5BG14wd9MdNaiG52srCoV4HO0lNWj+hoSlJzF5zoBUIa+EKXQdroT1FgmTKuD6shG6BPETJYycr4Tu9BSwux4+bw00CsQQmU0sjcNuMSDXYoM9VAhpe6DLy4Hu1XRk0BSWZuG50ok6cyXyixthv63m2/lTgVxzdaYYXvXCNyeGirjvh5MXAs9SDzz+SO7TOHzdRAgETVWRIiEI8C2DIn64zZ1+U8ul7hE3zdEOzjXyLff4R/p5KD/McKN9Ls72+zpOQ7/f8J/v6YdbMcM5aujxqy9zo999zz2KYNtwPj8GNv1e6Dba2UCvq4H7+KvNvxPcAvTAlK86uBLZ17iRic5j9G/TrXmAe0w/k410DhWcbYTmFKBYDMPnqukJv87Vdn9LszL4boxz/KGDu7FM97ckRAw1Lu4hzT4LHjqO02s7zjke0KRsxjhbMT3v3/Ryj2hWHsHf1RS8Rc+hVca9Ws/wuQrxd4s7uOHNXs5tUGYTgSG4zk0IYcbRU7C9Q5tGOaTlwHyqJiIf3BlEYRV3B+Dg6w3sRdNZK0xCUqFVrEZpEQRlYrg7hK4lMbSUapEohgyKxlgNnRB54elbFCI5jHz2CUb4QG+CofgNVJUKabRfGcC8GG6PJKhMVL2ZI6SUokwMqwGpWEz8BQ0YQbL3wZwnhl29Mh8k/0Y7xDfaVFpECu9k6Ix6YR8uLz5fEMPtGPFSQe0uIwW8kFKMMjHEJUi9hEeLsdgriBbSm6qgb6Vcq5DeaD2qDqYLqdQSPSxC5MG1fhktTIigNNXEIoRIOcrEkJ2Dchq2/7MXk1EODMUiWcUmySoc12eFKBzSG12qhy5NSJH6qggGahX2T2W0MKEWoY/MIniUiSGlCOZ6WiR5T8HwzgX4Hoq7DEqIVbivDmw9GMezegeev4lvtMVYFDJQRazibYMYymhh1LAIHmViQDwKf/cXtOwXh0qnBztRrjXA8J4Nzv4JTNPi8vkmxCq85EGGe1lu/Rd24Z4ZYNInC6k1Uov1qBOibYpRlSyCR6EYCEk5aPhXD1zH9yFLSCziZm836ixHkPurIuQftOL9lh64b0+J4+zRQFqf3JeL8IKS7V13+LfxGRC0Cj9cfVtZxQp8n/SI51qux2spQjJIyn68RT05bDF6qxc2FSyCR7kYeOLSobPaMPzlJThOkJZhV3BSZfL+EOz/aIOlvBJZr5CLrCWtxuAUlp+n+kKOVQRuw+cUi/A64/5N5jKIVRyqEMMwVnHzGhVUlBbBo97/Wi5NYcQ/hM+9frivD5DmcX1vI2OXFk3n/4S6gvXN4UZCJqryqtH1QaiXyuCXL6GQnxCju0qYdjYi9wM/ibSw+9tg3iXmI2HyYj3yP7xDos2PtdzfhnwL/yAr4BrdYlIq4EfzK41oJ6Hpr250mcXehgSpOVo19WghVqM7eQmuY3voBxEijEM+BR7/72vuhuMsV/vr1+nwKr9Vc02fbjeEvVOHo59g4jJnptd91DFDk2sEuBvN9BrDzkGQ7/2R3r/N7sUXZ7kc4W8c4z6+R3NREJlNyCDxRVJIma2w93swfMZEp3onYH+/De7noQeSpYWpQAw3WEVgCJ6LfBCPJuO+MK0YKdgPmsSxnU2KUcki8kiNki2kouKpiUEiLh5Z5Sfg6qgQL2rJD3uvOL8R22RCd3ivGD7xIJf9A0LTjyTyEA+EX8SSeEAPi7BY5olilFiE76JoxbqKtWI+Op6+GCiJJUbU0RVAvnsPgiuiYpgscs3iaEHog1yE70qPEGWY9SjcbuIuIY+0sKJg3N1eTAoRL6he2i3Ngbk4ylqB8szEgLiXkCV6BfDNjPwJmJ3MZlaxMIhrLj6IR11ZOItYIx66Mtqqkm6kT1DDCm5ep11olSyCR7kYIu0irj7A5E0a57wszXHENhutYt7rgZ3fT6qAjgplWwreoK3qHbj7ptZ1S9WyCB5lYrjfA+sJT0RzEst9a80aKZpKohsc2Umst4px+HrFxZ2a94wolLvmIG4vdEdFq/D824+xL7x0KYF6FsGjQAyL8Jy1oct5EvkHrGj/bALzMkUxf5eI6Le08s2uQbk2fNEUU4Raxd9PwnaVj5SPFhaW1YhDzcQqWs5TiyhQzyJ4FIghGa8dIk0b31zNDaG59giyDhyB9cMeuAcnMD23GBxl5Jdrz81irN+N1lrSrXy7DU5eyUla2DsVrNgNrOAROe58RNtPZYo9E4ZqrRjen4DglJGMFr5ahKrdfECsgq6AMhzWqmYRPMpHIBfG4TzdipaLd6TKVg5ZxfWwf1SDwhdpYkvUWSq/fim7PNQcgVzHQzcs2lNw013N8U74rMqtcsRWCd1H4qQUv0TO5r0Ai4pqUF5AphCf+vMFDI9ehu9MIxqMOcilXcYNpO2B6VAN7E43hrvkCCFG2VXEz0VRIl+WptGXBWclC4zQqdksEFScmyBNc+gsZVIyUmN28Wtsop4YGDse5TbBiFmYGBgSTAwMCSYGhgQTA0OCiYEhwcTAkGBiYFCA/wPfbEoEiGNl5gAAAABJRU5ErkJggg==;imageBorder=default;sketch=1;curveFitting=1;jiggle=2;" vertex="1" parent="1">
          <mxGeometry x="114.35999999999999" y="100" width="78.6" height="30" as="geometry" />
        </mxCell>
        <mxCell id="mdb3Ze5MWpPQNfukh6b--13" value="Microsoft account &#xa;login" style="shape=image;verticalLabelPosition=middle;labelBackgroundColor=none;verticalAlign=middle;aspect=fixed;imageAspect=0;image=data:image/png,iVBORw0KGgoAAAANSUhEUgAAARkAAAG+CAYAAACnCXBBAAAAAXNSR0IArs4c6QAAAARnQU1BAACxjwv8YQUAAAAJcEhZcwAADsMAAA7DAcdvqGQAAF+VSURBVHhe7b0JvCxJWeb9ZmZVnTrn3Nv33t5vLzTN0nSD9kI3yKoio40oQjuKuHy/cfzGGUV63FCUHhmYYcYVlFG6EfyNoCPfKIu4MI7K8jF+IIsKCC7siNDd9HrXs1RVZn7PE5FRFZmVtZxaTmXVef/3PicjM2PPiDcjMrMygxSIoijKnAizpaIoylxQI6MoylxRI6MoylxRI6MoylxRI6MoylxRI6MoylxRI6MoylxRI6MoylxRI6MoylxRI6MoylxRI6MoylxRI6MoylxRI6MoylxRI6MoylxRI6MoylxRI6MoylxRI6MoylxRI6MoylxRI6MoylxRI6MoylxRI6MoylxRI6MoylxRI6MoylxRI6MoylxRI6MoylxRI6MoylxRI6MoylxRI6MoylxRI6MoylxRI6MoylxRI6MoylxRI6MoylyZr5FJMymKMhrXXwr9JoGWuRsFKcjcs8ePOciWOVxtcqf14LYoyupCs0Fsu++2/lx/oR87BqCr10OWj/kYGVeHxNVMVmmtnV2przWk02lLEKYSBIFEYU3SlBU6OCvO+JT5cAfAJeX7GRRmHPw4STF+v5hFhoUdlafi8HKRYZ3/YWUlk4alP5dH4ueXLCKs0yAmqWOG4fZOEMN/IkkSS4g2H4YNEz5CP+jBnFMIBT90ca/x4XtbEuZjZFxNm5pxKySUtCMSY3W3nUi7syOnt9ty4lRL7vzSvXLq9JYkprK7VZo1FITLsplyf2r3ER4wCw+adSXd3XTYJmGCmD+BWRivxvCR2Px14Yk5vxjDZwmzsI7EhE0Rl4ujR2DC9fzmw6YIy4TGDdvLQy9sgrBeZjP8sCZFLyxSs2GQJt1FgjTKXCVhEc6Gt/VUJBcWZbXnZgvLaEpbEna6Oqa/ScP26omU1/HosCZFv55MGL+Oe+HZTkN4PX78Yrn80nOkHkZybKMpjWbDlCLupBLVkJeQsbbZ4rHEBsZPJzEJWucyMXsjw9hMRcBam87L6uaGSCJU2OlTu3LXnffLp79wj/zmb79L3vuhv5UHT21JJ+mYkY3LjA3Tq9HUNCIH3FzPGoMxNCbd7KD6jYZevcbYjbfbgPJLv9HYTkD/ljBbtw2YTiyzDkiGhs32mbAuTLYs+i0NC7+mu44Km8uDXXdGwoVxncd2VBvW/C3kn/t7YZ2xKKsnUBrWhhkeFqH9smbruTpmDpAPMryO6c7CFspc9NsfFvHC76zruItZj6RWW5ekvSOXX3xMvv2WZ8g3f8Pj5IpLj8r55x2W5nqEcBzpoC8gjpBGhnJRmcSsc5mYrZFxMaFCE1QUKxsGGut11E0o//yJe+XNv/d+eeOb/kg++U93iTSPSCdqShI1zEFJ0zY8+wendzBN3LlGkoGDioBwODl6YXOjn9xBysL4DcL463kyHTEL67aaVJhfswFhuzvoyPyaqPONkZSGtRsz4e/IsHAZT8AsPL8lYW04Nnyzc0hY+M7KSmYbtryeyL7UMdlTWLiMJ2AWflnxZ9w67kJfkQQwMmlrR6R1VoLOWTm6GcnXf82T5Du/4+nyhKdcLUePrSN4CyMd4xvuuimCgUm6jC4RszMyXiy0xjQytMctzF3anZr81Yc+Lr/+K38uf/on/59IfV2izUPSCiJpYXiYcIjIg2IODGuUS9amX6OscLtuvJp/9FcUyYdNCuvG6NCvaxBeWNPgM78und66XbqGxKX5h6XZ5Pm1Uy+/YebD9qY93Mc9ftiem+TDwoBncfTC2nRMKD8s9tn85/PaC9vza1z+uomX7nxYG77fb76ezF8Thiv5tLlpWFi7tH7zYW3wnt8q17GNx4fhMyF8kCQSxTip7m5L0N6Vyy86It/1r26W5377U+SSS47IuZhKBZwJcO7v0mPwLNllYi5GJgk6qB6amVDuP9GSN//x++XXfvV35YufeVDq9cMSBxhe1mpmf2zr3FYeziAmIh4g70xh4zYDaQsCsJE4I9MzNr7Jd3Cv9WGB2xiZzK9Jk2AJTxxxEZOdbsYA97k8ZWdJM7jmEuu+X2a/r9OVhrWNsT9sL/9+WDMEZxj+20vYLAyX7DzOnRv294VlJiH6z8LYJfPAzXm/trzAxFMM26snu78XNtfZTbayfSV1TIdLB9Fm7t56perYrWekaPMM2W2bLEvSgaGJpYG+0D5zQhr1HfnGm58oz/93t8hTbnq41CP4T2BoTDRwc9203eVi9tMlVjJMTBuVcmYnkP/2urfKf/vl/yk7yWGJkxCjGsw54a+xsQk3GgH8dY+hqT/spAes2AZoN2U7My84QBAvjvVMiBPpRmZwPnpu7GNjyrYYMU389xu9cbk8GJguvPEPxEkhPWGt4NfmL49bp28a4nwH8P2zZEzCYef8dGVh+C/zUEwnfxHThmWaLq1hYenXzwX358PYDkQ/+fwW8m/cNqwNY+u6PF3vOBts2dnZTegsDrvspWOOYpaOwxkoYyiypYvD+PTS6RozYLNVDNsrN8PxnyMfD/+W17FNm/u5Fw78tznhEqvwE6ZIj4YE1DC6SbdPylOfeI387Mt+QB537WXwCJ+8W0LjEkV2uWTM4cJvai737qB2f/ON75b/+nOvl3vv2Za1cy6SszuYi4YR5ppIGNY7jlHBrEOGc5Vnj5qh1/jsNrOW7baHPduOhXMT68oaDf95x4X77AHv+e9GCuxm1wB9Pw5sY3B0+KgGNxtrGkkM4xnx9gF3mtzYhjYI2wSxNFnxMmjwmzRxa91Q5i/pC1kSlyULm+WpF4NPWbrOfxYi25TzZ9b9Lc6dhfXqoedyjCor1+liW7F1bdd5gRR7swhNKFd2bLTObq4N2d4MpMudXQ+99uI82l38W8yjSaJAlibTthu6S0fvrifoumFYMJoJoxoGKjWpYw64e+puefpTv1Je/5qfkgvPbRpDlMIABQ01MrZWIRqZ3/+T98vL/uvvyOf+6QwMSkPaMCicHoVRHZ0xMs8JJMZKm5C20lGBdpVnD2fzQXZ2cZRWsz3C1u3hzqIOE3/Rm3dWy5EL6zLqltiXYE6NRh+kdWQdS9MAsvEVwnLaaBt7fyPtUpJvG2YASN7fPczrKFxJHMPSLXaqWaVr3AMjoyGwxoDXJ8yzVBgN08AL6pahp8lHjlwbGBVrsTLybWwQuVBIgu0lgfGgaGR4Ag7RT5pwtrfukud96xPk1a/4KVmv0z+MTDSgnVacmRoZjvwY20c+/iW57SW/Ie/6i4+iTdSl2WxIB0Zlt42zD9ZpZGJUrAnQrXrWOtbM8bVGxmDWBxxEs89ROABZcDf8zdFX4kEHzw+LQH5PQ0bTpIZNvAdABVJrNuGnBuMCIxqgU4QdLBkGe3OnMR9uz+8bamSAnw0Tuq8841HM0l6MjP9M0V4Zmq5zI34aGKbDMzkfSUuSXem0t7GPOzN/Q/I8PozEi2jQScen265cReyxQpAc24zpfuwLOPmG4RrOW7E0eWupfUYa4Rl52W3/Tn74h56Ty96yMTMjw0ioBH9+6Vd+X37uF98kp7fPyDO/6enyuMdeiwpMpROjWmGxQ8wtab1TY5VMcEt3KGgPYK/x+Z3d0t8huMFu7HUImyvfq3H7aZKyRmUi8T0W8mCG7euYJmE78v2e//OX8sG//hh6xDo6EQxNiE4RthED4xjSaE1B/Bxa+stn6TMw1jkxxZotS7fPwGTLSSnWbF+aXIcHXjepI4MRn44N2vKIR1woz37207Cdod2IMYtv2opwtWky5iIrizTLebdS+tvmOJjUzEgGLYRGNOQJC1Mmqcn2mTPyxt/+bfnyFx+QR119kfzvP71DLjoPRigLt2zM1Miwuj/04U/Jz/yn35L3/MXfycMfeYHc8Ws/Ll95zZXm2hYGMKgonJ1QUzRGDOMS9yuvvyJ781xzcKyzQG9rfr//KF62z0XmKO1Z/FP02CNBmBjqoCAdJPCXH/hH+ZmX/JZ89vMPiNQ3pI1/EmFKmDXGEMP8wTCxXh4GDnqA8ellq2gA9kKx2EPTRTr+7lmly2hy6547Qp3VO3XpbJ2Syy/ZkJ/9+RfI133tw+01PeulyxTZ8SjGOorJU2VKFPsM+wJvHHVwANrYsIYT8i/80pvkF3/+jXLk3KNy6489R376x79NGvDLsucxNQhNa/rnx0yMDKPgbeEW3G98y7vkJS99g9x91wn58R/7v+QFP/hMObIeoYJSnNkx5+QFLj4bg8o04bLk7fUMj2w46oblaWqvwJP+Bp6v4P6hvI2L9DWjYUNjk5AfmV03HQHhgqAuMY56EiVy/4lEfvXV/wt6M9YPSYxMJCGMTBa9yZNLKzeFQ2TF3g7KOjw3+WXveimNdzz80pHSdOHJ3zzLdO1opCRRQCMTbMWyFuzIdz7vSfKLv/D9UkOdRrLbaxd2MR25NsC8lOcnj1dm432PdYAyM1gKC8PRTMTrLbA0W9ttTLs35dTpVJ745BfIFz97l9z09Gvk7X/wc3K0Zp7/LcAaoPwyVIuZGpnP3nlW/tMv/K78zu/8kTSbdfmtN/y0PPvrbpAw5m8xxFyHCcO6vYCFih1qZAoHjZeNHaOMTL7PuoNg4b588GEHJx/WX+et4gjDWxQGHRMGFvH+2bs/LLe95A3yd//4oATNJi/PYL/xnmFvz/Z1SpPhnscSm5MjZ2jg5i1vy94aetGgDEu3WOe2k0+fLuuOY01uossn4pT67JY89LINecf/vkMecnG2w/c2oq6qDwtDYWTc2paw1pDdDk6ojTV57ne/Qv74998pl33FI+XnXvZ8ee4zHmVHcbkyu/DD2vFimUnOjKHA/wfuPSV3fu4eWJNUnvzUx8uVlx03bcBcOYeVjmowMC5FLOnmXV+K7rzQ8JxQs7xY7MRrOnmhm3F7mcwZghFYBX1+hoRF2v3balaMF//Zwdg5ePCf+sQb5Nuf9XQ53ECcmB/2m290xrKz/hQdhca9l4zJ0FiUjVj2QsKD1GX8yPx07dUy1hxFUDcYsQYQjViYtKQZ3C8/8SPPk0tgYNpoV0kLHbCFE85uW9J2S+JOSzozUaegeIi4v+2pGBe3FeOjPD8x8o6TL92tFsuBEzFOXDxhNGFgaNS/9Zavk7Wj63Lii/fIxz7y97aKsD3frnIrlWT8VjkANxqJcey/fNcDcvfd90kS78qTHn+NXH7phbZP2blR1haRJOsl5QrctCCUycoQOX+DBAPgZG8nZ0IDnuwfRip9/+yFOSrgwJXWEQYuwBC+hoIeWRN5+pOvkRsedSlGb7soN+oGuU94gTvgjyw4GmOFFBsG64Z+Mhk/vvKw6nritCyRGOGsYOOdkL2Y+0pkHlQrKJ9mPo/5NCnE0xWOP9NzgoUoS5MqpumnYm5No/Ol7V1Zg/FvnblPbrzhIvk33/s16IAw5Dwh8FmRBuq+gRNWvYETV0NqM1GtIP6YcZCK+4tx1aFifJTnJ0LeeekAqtfrWKKtYhvn16a5oD6+7TnXylqtLe2dtnwZhobV44/+sZYtiTtu1YM9eGpYaFbKzvaOnD11Bu5ULrqoJofXaZlRKdhpL7/SWGCxV7mwQzWIMr9FlcGEy/wWZTKY/RV54hMeId/x3KfKRecfwl6clXEGM50DlWCfMnXyYWOxMv/QabvKtvICshWaUpkQpRWNTqauf+ceV1mcpds8ddOk4KebbrY/F75f5iE9GBrCMzjv2DUb6zDYsDW7Z+SyCw/Lf/wPt2I7jBbv4rk+hf1e1S+A2XVmXiawlwpQIJ604OSqmxJdcvwCc44+fXJbTpzsFIwMobuaxsXBQzUz+NRrjLN389AhWVvDkG9hjWCfMBaAhcwuvuDg8yLetzzra+Xmpz1W1tJtnHTRiFAvYfbQnvlVLW9/m3BcZMbECZ20b1ufbPBylfnfqzjKKNtelh5V5ndQHHmxg/A5mACWKkzqGAGGUkc9roUtedlLf1Ce8uTrzZPhpiOa+jbVtvKgtKbMl152GUbCqTz4wAl54P6TZp+bGCwLMzEyvE7OQrMxxO22HN7YlGazuVQVsWf6GjwG+ywwOs7FlzTl+7//GfLMf3GDrCdbwnefNcImhsSYT9EnT1hsRYVITMOC7MwcgkdzzYjLrorrw0S/e/Hva9Jw1KiwbDEoKwwyzkyosjamoB0YmV3Mls4YA/OD//ZZ8l3Pe7I5R/OGAe++IJitoIXjMjI6Q+bEi35hHgkzxgHGdVTHsM3ItIyLLuRIJpGzZ88aMSjjybe9ajO1kTHDPXQE67YNgb/h4UXSlafQxiJe3GZngPuGr7xcfvLHnyvP+aYnyUYDxvcMz0I4a2NkE9VYPxwm28bEazfscJw5hBAfNjPCNq6b6xFwWyGdGMtB6vqj4De3Po2GpLvHdFgmhqmhXDU+mtDekmTrPuls3yuXXbIhP/Zj3yYv/NF/ySo1M4hanaM/rHh1vViyA++GckNgtp1R8Y2LNTbZyiCw/zBmBVzGMY2Vu5mAP0zWuIenXwVmOl06UPDYGgvhlIFtbte1j7lCfuInv0t+9Ee+Qx51zQXSaj8gCc5GnTM7prHUokga9QZUl7VaXRq8CBjWMPLhc0WR8BnPBhpxI+UylDVMKdaSANMwLAfJ+HEa4XeoEHbcuLjP98uwZf4yNbG/1sbZfXtX0rOnJWidkmNHQ3nGN94oL/7p78Yo5pvknEMNc21m/l2ocPwcbrO3a4DPfuDJ+eVJmBeHcf7NGZmBeAXuGRQYJLMFmMZlPdnb//7dxWoyk+dkOJyLMZd+01s/KD/54tdIUkvlla96vjznGx4na6aScNoCvNuzOrDabLmyI987M6ET8SErmvAd1M3JrVQ+9anPybvef5e8510flk9/9gty9z13inRaPAAIyhaYhWU4bjPCulnac4GxaQabXj8mgHUS48Xlca8gMMrRY1CapJhuYd0H5eErDpobh+ScI4flkuPnyfWPvVoe/4RHyk3XXSGXX36hREFbNtZoZCL+LNLkI2R0SD7rXzPE1Y93vi1mPUuzz2fmjxe5XRDjlVk2ayK/93t/KCdPnpHHPOYqefITbzQF8M0C68LAuvbqm3Ge7SToT6+X177mD+SG6x8hd/zKrXL9tQ8xTaTO3ze5xFBLGBtzBXjlqAhqZCaCVebkGgaXmRubWa1cw2zCnnGwcuJMInfedb/cd/9J+fSn75EzJ0/L6VOnZHtnx8zd7ZUKxIIwpu2xvWBkYDoYMO3QuOgPst499mhQsngdJtbCNtJL1zXsIoV0S+JwZWD4JgzIhRcfl4c//LhcfGlTjp57VM49tonttoMkSdtMO2tIz9Zilq/StKelYDqKVcg0s3Q7OKbMhr3MbzfutEU++fmz8snPfEGOHl6Xr3z0cTnvKFo9d8Pz05/+vfKZT31Rvv6bnyK3v/qlsoYuEJUdJ1PJWUKARmYLRuYnYGR+/ddhZK57hNz+yy+AsXloZmRcDpgjPg1vp+muHL2YFo8amYnwGyarj+Jh9Q4tq9WrWedkO+LvuPi1hhQOM9dG/ZmWg/AMZjqUXe2tcxPXuTSyhitP5nFMuh0/wzTPbJsfdS9dm2Z/KvktQ+NFeF6zq61hirhWM2/o552ofJ326J2h9wlbUCtXCVh2cIzaaWKmuHUWIivP3fdvyy+/5p3yP/7HW+Sx114lL/6p75Ibr78cpaGfQL7qq75PPvmJu+SZtzxR/ucbXiK8fFlqZAhHrFm8RSNz/XUPl1f/8q2I+0qcuFJjZGzNMIA1Mha73OdaG0qV8rJEsNpc1aE1GDeXg+F5x/xDw6tFgTSbETpZQxrNdbg3ZX39kKxvbMrmJnRoUw4d3pTDWJ5zZFOOZOq6j1IbcBfV8zuWTDw9Mf5zuMxEP8adLZnmOX1p9qdr/fbkx3v4HJTt0LpsrNekVre1RiNq3xtjO46v2cNO6Rs1H2zjp1u6Vt365svw+eR5vQaLyFGpF5Rjm63tXUx/75cTp8+YESxhuWgz2jiZ7O7GstNqSXt4EwFMCAvfX2aAadwNWLrfejElpyozn+OoDMWMTtBOeBZvNETWmtC6XTaoNasa9rFdR+iMlHF7YiedRn5cJj5PZlvmx0+3LJ4+ef5deKqO8tRRLt7JN5eh+MhDbF8+VTm8Ts28fupzd8n/+rO/kj9/x9+wy3ezTKNCA9BcXxe+xoSjeh+uGz9Utm0ccqNBGD2udg2NWbHOZUCNzNxg6/SVbUKNUw5u5qovc6Ly/Zr72BiAO+HsFlJo7tOI8eTkpwH5aTI9k25JPEUNirc3goC4ndcn+LAiOpHT/PFrvEgIoxfI9k7HvGSNP8s42+pIC8bwVb/6Bvme73mRPPfbflg+9rdftMFZRThYzHar3TIGxT6924O/f+N9eP7mrrcnO8BFuXZCEAwDXizgQCMwzxfZNbPda1IQt1aXaufuwMLO5nfKVWbRp2Rbx/yC484WdDaW3W1McVo0euzffEwwkM3D58OSNDHCxDLFkKwk2+6omSV7/76wbwlNjBqZfcc3Hk5slr7YcHhoMpkLgt76fmleabrymPG/t91on3BVn8EHSu+6+7S87tffI6973Z/Khz/yj+bOYMdcJwqkgXke3x/EL0Ca48PDVILZjJGLeUi10P9HmgN3+Ckvb8vO1Ed1vJtTI6t39RhYZO5AA8yWk9TN3kMMZi+52Eu648Xr+xqkOWCarG/g+RqJWD79T1+WX371f5ef/aXXyLve+0HZxe4YloZNvNPuCC+Smd9R8T1CwNhIWJII8z6+QpMfNeRzPd1Y8Ye/1ud7oKPQvj5zL/RqIKsHm1WL7wbOby9MdZjNqQMFZpmL9sZY8syiF+eqBwJ3xH1lDvcvv9OpgLd5iK89w4M/ND5v40A/JTi/A8PkdvorZZoDAcxA0IZ2scJGG0ib77BpRiJrMCANvseRb3AUqfOeM7wkcQv1xXfBbMNoYEfW1nmSTeI2pls7EifbGPnwvc5uH+sYccIw1ZgkrQ8wF44HysNUAf7Y/93a4DUg53a4/b6/qjAbI6MoSwV7KW9Vs9cHWIO5pzEJYWgaUEQDZL/rZC6+wnuTd82iLWk2Ga7FYBBHOfR3VjY3YUjqMESIwzcWUbQr600+2b1tbn07A0AfTqtO9FKQuScHNcUXa//9P3xJ3vGuvzLT7Zu/8XFyzSMupR2HMXZV6apY8THt1Tr3lUnSHKdTLKo8Y8ECmMxZAwPTgU3ZqDKqyQXnnytPevJXyFOecp1cfsmF5vdTNDT8rM+Vj3iIfPVXP1ae8Pir5dAmRjs0RGEk5xxZl6uvuRzhrpPrH/NIOXKoac7evJbDu0JP/KqvkKd//WPlkY+4wvzgs6wWTZb4l7vQl7jg1OvP3vlR+dBf/6Mcv+g8+aabv0ouOX7UjpAYjw0EWAJHz1UVpn7i19z/T1LpJKG86S0flBfd1nvi95abH2fesM7bmBYdOBVh5U/aLKY6cGCSdMdJs3rNvAhL0cFfLmswN7ZT7ySB/aoGminf1lrHRvORUOzj4y8tONiS17HffGwORoafv+EL2fhGQO7r3sbnP5xtO7tYYh+fH+JD3TWedY3PHt364kUeJpYZmV34e+GL3yC3v/ZtcsO1j5TbX3Gr3HT9FTYeXhbqBmR6jur1Me31C6bXOPYOw06jSSiLp6jqw04cGTkDw25fQ2/gmz25NCNw0+GxxE52FG6vGyNBO8CdNCR2FEFjZIwS1swIhvvwjw8g0sDAiWmY9VvUKKw/hmWacDNPue3VRo2McqBgN6VB4eiDRsZ2VfvXfKkSoxPzoCM7Mj1nMh0bnthhzDMw5u2G1qRYc2UNTYSd/JQLv7PFOEIENKLb3I4ibjk+vpHpZ9D2aqBGRlGAMTIwP5jgWGOTbTP9N+vD/qP+/GW98QHDYQxQNqIxYbK/FgaCWaOnbnh//x7pJQKyuHsRVxI1MsqBgv3TNXrXX+3UhlMk+y0tLs3IwXnmMAXLAFYmgrHg0gj7jZ8utrN3N9GwZCkYzDqhYZgEF77aRqWIGhlFAXaU4gyCMxPYaIcpnoHwKGy3syGuD/BvmNTAOLL4lwg1MsqBhA3fVxnmZo8nBw2SNUoWf3/R7+zgvTDfuNBd/akSUSOjKBXHmBPMy3zjVX3T0kONjKIA+4PG+Ws67P0la3D4vU37RM60E7B5s/RGhpXupEyG1t8yMZe52FxZaiPTMzDFf9pxxqdXg4oyD5bWyPSMCP/yR2n89SsfFedvXPOGxupg/zNwwbG1U7aBj8hTdl2pLnYUY9tzHretbN+iWUojU6xIa1jsmzxynQrQxa1mD9/5UaJV+ufK7/9zW7sV0q0et+Jm9t0dSsXIHbbclClvePL+qsFSGhlWq5OFT0vxByJ1bON7UIPuIwwUXy8bJtiTlsu9KX8lNOAfn0c1jY9HnGLlwb97PN6qV6PKMpDvBVVlaadLveplF+JLmin/p2mZH2NosG46FIqbQOalQyy6VQg3fzG7Ehrwj5gqyGQ2mbsdlKsLuhVltrBlLTUsQGunJXEbwxX878ScNMCJ/kLlOhXxljyzOxEXZqnFchREjLHFilli3byig/L+qY1ZVqrdjZfbyGQWoh7x1yb2x221kNOlbegsdAr95qSRFJViuxPWqQjuZVeYnupTQGV1IZ0HRHYfkKB9Bttb2MbvHllokIyxUaoHRqnlZ4HqnxlW4qVVzIO5O9I5JXL2Xrn/n/5OGukZqafbEvFtQ5wiIW0eDp7JzejGhLRwBLAqDHvgK0E9xWisa0cuktplV4nUzkWAQ1ATggde2lLmjOsLJbiGiSUX/kurrudLq15pX1rFryjwpVW9I+3HaftYlUYPK2FkOvxAO6xHcOJTctdH3y0P3PmPMDKnkfYWjAyKl/Di5vC0V8XQ8HWPg0ixbycOZO3wMbnoyutk7eqnijSOYwcNDTzQyKxIPVQXNTJ7ZtFGxg7vEwmS+2Tnr98uJz71AaltovoDTgVgfHhA0joKOl7v4UhnmQn5QuwSeJTbqH82UF6c2Qo35KInPU9q5z0GOzeguhqZfWEyI+Nev3njDVeYV4EWX7/Z61lVMi+W6uVoAuzdk0TqGLk00rMYvbRpPc0eFjGB5UjQsVIauyEyz4qUbF8qmUZcriiJMYVsSz05i+VO1kazOZL5jKyizJ6lNzLWwKAYacO8zLkTJTAo7DgYQ+HsTBtvThDG0GTCeaJMMfbR3zKrW8aCuK8mHWnELYzsYIRRYkn4duvs6/esRmt1FGWmrMRIxswFOrx1HUgc8u1modSSwIjTJb5O0Z7NY/jl4/PlMhePuX8FFXBJUxrCmEaBdMIIhofXqlAvQRvuttmvKLNm+Y0MDQw7CpbR5nmShOcIv1ncfTSP81sOZegFRmfllZXXFywIxmkhRnmhbMEInwqa0lk7LFLn1cMO1MJ+3srmFFNRZsvyGxkO8XFWlmhD6pfdJNGxR8vJzoac7tShGtTAelNOxBtYrsvJOK9T2OZUtn/Z5JfHL9cJ6P72utzTPixbjYfK5qWPl7BxHisP4lv3s2szijJjVuMWdhzbGyNxS3bv/4KcefBTmCadyc7OGMS427olRQ2Km5b8ZD7wORlsj1H/SbQmzcPH5dCxh0hYP4btvKuEMCYY/wwIr8yIIVNSM+q0Sy5W5e7SShiZBLVu3jwWIx1+41jOQC1kjuss3oh0l9ywjAWNj7nAy9a5BuHIJJwuYXv12uUKM7mReTW/IAkjY56TwVm1dz7h1UiHPZi99cWzEs0rDENjZMy3RUOcmcMj0PlYvxC6CLpAFaE+Qj7hi7oJ1iEYGPOR+awSlUpjzoO+5ShYEWObPFWJ1WpirHhzxqaZ51maZ+0x5Pyusrrl5cSSh531hIWizBk9jymKMlfUyCiKMlfUyCiKMlfUyCiKMlfUyCjKsuDfNhpyC6lq1/PVyCjKEmBunFqnefSraEjYkZ3UyCiKcqBQI6MoylxRI6MoylxRI6MoylxRI6MoylxRI6MoylxRI6MoS4D/62r3RggfvkDCacgjNAtBjYyiLAv+AzBDHoZRI6MoyoFCjYyiKHNFjcwIzOtFl0jKKrOcx1eNjDITygzeuFLGwLwnu6yuql9/B9bIlF+J55on0wFWST2nXbMr2abu+v6KlG2fndLivRduXhlYGJaruhz4kUyuvSX8hAq/pEjxqwf88mLCTzosjWyJSsR9McrUjs3XJbiV21OUkZ/otS662xOJn58ZJBmitCSu2WgXce+gRNvQFta3kN62TZev+692v+wjfzPJHr3usQXc76tKoF2aljkxZsi74E+iTILLUcyP0PNDNm00wLMPiDTcYWJeIZTLPJiwLPS+k1EA21vo1NGayDlHJK2FKPuuhPyOL44SO/tWfD+Ct6z3PRK4b1s5vFblarSMhO3HeZ5pNfMzIfwuesfIfE20E0ozvFhqnXPEfNmC35vad4ZYt2GfRLnu4XL7K14gN15/JepMpFZj3umL8fH7oK7+C8ehAhxYI2MLjbN3e1dqrTPyz3/8Jtn93MclqnfQHNnsa6icmoQxl4tojJMx6ONu/MDdFgZoF934RDn25KdJ2tyUThBLVIvMx/HuPfNJed8nfhdG6FQWYg8gyYB/PMya17LKjjx3GxOT+ZtdNTNCGhnEjTImYUfiTiL1zmG59opvkiuOPV6ajSMS8Muj+840RuaHYGQeZgxz3siwftXIWM+VqwDkK8WZu3VSvvgzPyxbH3uvbNR2USnYldYlhJGJYjTEFTAy/MD+vUEkFz/7O+TCb/1ekaOXSBvHrt5oSKt9Wj5xz5/L773vNmmv3Z2FGB+m6Kfrf5XTbS3Llalm45emxmK2lRdhT4SIiNEkMDJxiCliJ5D19Lh8ww0/LNdedots1i6USOrW874yqZF5WDaS8Y0M47I1V2UjU70c7TPmE7ZhKJs4221iynCs2ZTzGptyQf2QnF9fl2NrdWyLll5Hm6EcXutIbW0HY+0daYe8joKRXKsldRigjUYqUXhW6vUz0mxuS3N9Z2ytrW9LY22rp6bnhtY8d3F7E37XmuXxTqM1qrkLN7Uj65s7MKhnMD1EXqNel1weaFR861tcry4H2shwJmu+og1D005iaceYwycNnCnWoDr2YTuOYwu1tOxq49Telg6mDjGOeoKyxVLDyCZEmQPsq4U4eyYtCVAPYdqRaA+i/zBtdxVky8hfT/oVUIwD+WI8AZZh5p5WJh4e3TSBeFEc5U52BfNj5IlXaJYZl/vlMDRofgcXMzLNqiDFcD/ElK8e17AMsmG27ZSc1y+9OLTmt6/jJpZ1dDx0NNP5OJ4JYEwT+INgcIx/lH1c8fvjJqwvGLLEE9fLZa+ZUBKUxz+ZGG/bHEce4xTltVdp3Bc0l7XpL595PNBGxocXd9nxwgRnd86NjXHhnNfNe0eLTThkxy1sr4ZQppQdrG6WvKlkbghRMLCx33hn0I79lAnsdp/MJYiCZgcL6FJnxEzAFLabJ2V/ONBGhoU39xdgR2poeWx8HWzoYAdsBZojGyd9WXGYPUyBp7L9cxGNIkYoXfGOWIkCGBYzauN3wrHswMKkmCLxurYtGxa8N+rsqpN9XGi44M+8QX+ATMUO0rhpTCAMjDAlQyJ8/gnTJfvME80pPTDh5cFWl7XCrup83OFyqhLsPQca07kg0xmAOUjujGr20eKMJxoXVqldukgyPH8zlTmEnsr8UNhnpg28C4TCctQQw8gkkTuzR8aosj66QmX01rmvXPYWv6/FY/PFcttThckVyuGO83Lj6phLlrHaVD+Hygzp3SrmLWfX/bgtxVleUeaBGpkDhjEsxtJwXIORiDE2ynJT7SOoRmYE/vRh2clNFTI3t6mRWQbsqLMcNTLK3KHFGEejMZdXuCxIWTDd615Fqm1giBqZGbKYTumnCpmhSYkG0muk9EWV3l42PobhQo/2qRws1MjsEfS3PsbqhGUd32lkaKZaTNmF3SMmOcZlD727+Mu/ZjOXdpEHaaWelP3FHCVX7eYYWqfDHsWeqoQamT0w6OCZ4z3yyLqWUaZRlDQdszpu+B7OqFiLwmW21VjK3oNqxVhdSk7K4siOXA63rWzfolEjMyNM58PRddo3eHrz1WcOnEbdoqaBgbz8Dy9PMX5FKUeNzAxZXLcrplwm4paDGe1DUfaGGpkx4Im89GS+YrCMvFXv5v5u6eNGNcXfICnKINTIDID9xnQ4u6p4qFFR9oIaGUVR5ooamQFwpmCmAna1AhRyMm3GdDSi7BNqZMaA/dlXEf+nB072ljCqdxyN7PG8M4RIc5THb965PEgIVYzFv8ZCZ+5GlbduipP5JW69uF2ZDzwcrp7L6ty8PcBTlWALVxRFmRtqZBRFmStqZJQuHIEXpSjTokZGyWGMS3YdxshuVpSJUSOj5HAXGLuymxVlYtTIKF2MgSlIUaZFjcwBomzqwymRWxrDko1gfLjupk8Ot17crswHHhJXz2ZZqHOzP1PVOrUamQMGG6GhpJH6OENTNDhKNSgeFq47VQ01MkoX2h3/B49qYJRZoEZG2TM6PVL2ghoZpQsHLvYnEdl65vaNinPnf0JhtylKGWpkFEWZK2pkFEWZK2pkDhjdmU3hom5xxlM2BWIQJ2UfcMeg5FgUN3HdqWqokTlAlDVA/06SMSDwVGpgsu2D9iszIrAHggtWM1/RQZf5ywPklpnbYX1Z6aseFEU5UKiRURRlrqiRUbq4UbgRxt050YOiTIAaGSVH18A4d6ZlA0Xof2IZ69yu7C9qZJQcrnMWtWy4PHfLY1eX02IuOWpklC6mQw7RsmHy7RkY95LtZSzLMqNG5gDBk3jxRM6pEeHPA7qdMpMP190XI6llwJWn+6NPp2UEhXHHyl0n82FH9lUl1MgcVAqNdCXxDAqL649kqvYsySqjRkbpYjqfO+tzPXO79WWja1SWuAyrgBqZA8qwPkdjo52yajiTWaT6Q1I1MgeErs0wFqS3bub21W+nKwS73CBNatmrPfljyZQDAi/uKivCEo001cgoyrKRMzDVP3OokVEOBHZWiH9wLOWAzjMsphyZy5XGuXpbqoMaGeVg0O19VeyG4wDDUnw4xsOVqoqlUyOjKMpcUSNTwLwkCDJng6qdEhRlCVEjUyCBgaHSNDEGZ/nEfJfJ7scfa0Sdm5YUS5bZuDO4mnjiHhekKOe/mmJZbR4rCfNW5fzNADUyHuZ4u06ZJJJQcC+XrMGwhtJvvYWW7PZ5flyHNMq2OTxvfQzbtziYqUpm7MChRiZHX9fKlsvJeLmvZUtlIfCu0RI98zIJamT4tGQQyulGQ040NqFD8iCX9U05WT9k1pdKzHMmk//64Ux0r0urVsdRx2Hnm6oNbAKhhEldwviIRO1DEJdHJewMVuCpbP/C1T4XZTjPqnUUy3NQvkOwvGs44iveqytGgCHyVKdrM8TGpL2ThPKmt3xQXnTbaySppfLKVz1fbrn5cdKAnyBwjz1XzaYlsr19VtaTs/KZ33mNnPjkJ2UNxoXj/yBtT/DI/aSPd8/ydObnIejakpiGFCtXPvVpcvGTvk46hy6QKGhIwF9EhrHcs/0x+eP3/YrE9QeNf9MssrL7VcDfNLk7qSbqsJdv40IalXmyOK1lr6VghhIY0nW55mHPkKsu+1o5Wr9IasEad1YHV2/ZchvT9Re++PVyx2vfJtdf+wi545W3yo03XImpMMafZgBqy8UlThPcAKo3bjjgRoaHCI1P2iJb94mcOSVCI2OudHbsMdxT7fgdHAEHPddgfn3Y65zW7a9PQ8HQeUbA9P7NwyJrx5A7GJhWtg/b23IvRjl3Yvu23QZXsfjF0tjQvfj9df7t7VkMKaaCvVJQNanLhRIJRjnSxHGP6K06uArOlgONDA4xB6QWeo5RFjUy1nPFKoC5Yv4jnH3TdFfS9hkJMKXACoS9xtjspbOwKrPqHDoMQoy5nznPsl78PFBeOkwmrKNJQmkk9TjESMbukrAF7cIRQy7f+fz3l6Y3UrKYBK1z4bCwzAtzzTJxnT2zji0Rcw53CXPPvqvwEtzJJ6vooUaGIxmTV1u+KhuZ6uVon9mJYxyiVHZxlmvVDqEJrGNqAUVQfUMSqjamnH8TZjNTti8nbO/6HeRnQjG+bh42MGPwFHAq2ETbxBk+RuPkyIZtmkrR+TrY38ZIp0UdEtk9LCmF9YTCvjgT3Ukb9dV1wx/W0w7Cwr14sSyZTLlQnjZOIEnNThGzjrwaGGtTWQ64kcFcthZjqsCRWCBr4Rr6Hc5xaSgdnOnbOON1gpq0x1Ho3PWCGiXy/flhZyHk208bZ27Kjl5QLnYwqM5y4h82CQahZslrMxJimhhi+hh0YHywhNstxS0zd8B1TynDmmV++2LEvDjh1M9tqAkzwuQsif2yTJVlWAYrnfGDbWR4aKKY5/VQdoJQzmD9DGrkNHQS84CT8HES207C40jRn/HvKxwi318hrmlUjDfTKWgrDGUX5eIgJoDbTJRRVk55AhiIIDqBcfi90P3QfZg63i8B3CGWIZYRFVlx3YhuT0GEcBDDC5cLEfJv9AD0IMr4AAwfyhVgX7IFWwNjunQjGRwkoyJl26qFXviNE9nGafx9d+3Kfds76GwJpku8EGoPajj2QSyrxmFVW4x3Fo2lmB7zb4FJkUbckivPPyxXH1vHpNBLkcHS++TsPe/FSZ4mKQPbTYyZRz92FzZ3bcM4vfUc/XmbL4yfpTfjNSQfwwhuSK15lYSNh4pgOinRItrjpNdkrsquyVxRuCZDePPCUb0+duCNDA/ovcjeS//0S/LRB3CWawSYIrmmENrpU+9odvGbCttGUNJ4ULl9IVnZpi1le0xYcwTgsDsMdPXWLCasdRrozvnJ6jl/C9n6qKUdaWyfkGff9BD51msukoswZeBl0IQXt+GlfeID8uDHXy3rwZeM/+51a+xz0bns2fxacumT3JVgz2Nf/QxqC30xTgmPQWpOJp3wXDn0kH8pa8dvRuGPIalFPIjY3066mAqGsmrLGZnrrpLbX3Gr3AQjw5FoDcevV9X+kz+2Xmddi9OgRgbcCf2rN39JPvBgR5JmA42R5WLl8JkPmBiv8xP77EXWJszSVqHf+dhQ/FCu4/eH9cPZjbl4AMNyE/2aXd4y75fP9/Q2MDa3v550ZP3MffK9Tzku//q6i+Qh8LsWovuhIacYvbXufrtsfeylck76GePf5mQIuXRBaQB68uT8mLB+AN89yzbCdmc7YIyeuZVcKM2rny/NK74HvfRCbO3eB95HpjAyGMncdH1mZGAfe7Xmx2nrr0o9rZq9fp/hMe1ENWmFddkNG1h6Crisj1AhDNQu2TZaZXFbtQvLVtTb11M+jl3PTfFiMB/Ks204a8lmyY4YY6q0IzXZNoqy5Wy0NWBb2fZZysZvy4KyBS0JeXHbt2nK3DnwRqY3kOOzMpnzAMARjh3lZIXujjbnzAGqY8WiRgaWxQxSOUrlA3j7jJvOuE7v1leSbtnY7Jz2Z1jBVMyda3MhY3/SVCxqZHjhM2PKy1MTs9KGpSJYs6LGZREceCNDzLktd1fEYi60Qtnza125fcNwYZ0/P+xemUW6k6Y9EMbXFa2kvciaV956+nnzNZyyeJ0K8Rflxw23PcT8o81+P9HaHkFZJxjdMfKM8j9ufNOmu9fw+8G8R3HmSeYKlnsi/LoaUm9VK64amTFg5/TlGLTubyvi9hevv/hhB8lRdJf5cQzbNwpmb5D6RhRFD5T5kyDt0Mjhym7Lz4xxXyZuM0K8Rtl62cgFEaQB47cq0l9mhM9HsTwg3644pu4yt8OrQTUySwWO1iSdk0wabhTzind62HvL1CO/Ni5+PM7tb+uR28tjx40+la271UaNzBiYBluiUfj+xg1Thgs7Tnjfr6/5djB0Z3944lTA5AUZ6cvbMPriotuXRy5eu6/gQ1kAamT2gZEdqTL4nbeo6bE/zyhoiqiLdsz+jMOKERej5pPb+Two+4EamRniTrrFxj8MP8xew86eksw49XXZvWM7OegNN7iVWyYml0X8cUYmF7PLvpFLV9kv1MgoK4kxOgWMaSnZrswXNTIHEP887jpjWaccH8ZYxdFBVfN1sFAjswfYEYfJZ9g+4s8YiipSjGsSuTM4o3dysBFwisGfTgZpkoluG9aI+4Q/pLSyoZxcjP62nrp5yPDjsXF54q1oI+MRMA4/tz6MtBfWz3sXz+lFunwg264opp1kbkevFvr3LRoeQeUAYLoXWp/f2fupWvN07NUwZOUos9gmLmcAlwy/OEOqRI2MoigHCjUyygrjRi3KItEjMEPcdGT4lGTZYGFmM9Ofrm7YVAtzBHNxAtudfPx0zH6GVaOzCLTGlQPG9MZS2RtqZGaIObFmWl3cqKYC9zPc4MTJx6wzX5C5W5W5c1L2AzUyisfQHgtcxyx2Vrd93vj5c/IpbO8aFp/9zvMM8bNcyL5f8qz0lUGNzB7wRyplWm5cIXwR311s5U77RxoEXRXx93WPR87b/ud3ZiDb3SJ5bgfXfVUJNTIzxDXhJW3GU+CXfP9Kb4w7l5mIcXe3+3sySkc3yjxRIzNLqnoqmSUDy+Y67z534kKdOwNjcLeyunn289f1pcwZNTJjYIanng403fL7vbvbi/ed4nHJHSM3Z3LrFcnzQUONzDD8BqsUWHxnLTs23Vzx2JktBYzhWVyeDyJqZJSVRM1IdVAjo6wwOmqpAmpkJsDN+51WAxam7AE7LrlOBjUXdmTuc5pXx/ZfReHn0ZLfl5Hz4vK5hCDr3UtMntvhjppTlVjSGleUMSj2xC7OGCr7gda0ssLQyAwyNMp+oUZGGRPXWblcpmaT5Ts/s1L2ETUyIyhefxl2DWYcP8tH0ag4Y8NtTm7bPsN69uXjr3e/VVssi7IfaI2PYOC0XlkichYnWyr7hRqZMSi7mq8sA9kQpzu8LErZD9TI7IFBxmZlpkimcE5F/H1l+/eDYh4K+egeoGx76YHhutMS4RelJPuu1F7pK4MaGSWj2EzLmuqwffvFsDxk28vOBIaS3rmElJXebSvbt2jUyAwDR8udHAe2W6XC8LE036jA3X3gUNkv1Mgoq487QeROFMs/olkW1MjMEHcJoO8ygDInaDXYhMtUQEeiC6PkaCjKKkCropalCqiRUVYUNTBVQY2McjDQKezCUCOjZPBikrvzUrwrQ7ju718imHUoTc0frCxZ/gkGZu4OZ9ndTv/IVK10amQURZkramQURZkramSUIWTzDCNFmQw1MkoezvXNfN83MGpolMlRI6OUU7iwqCiTcrCNDE7OIf64/tR1mZccQXP+wZK7SzDnZAx2LIJ/fWkF5qZSYO66ADdoMR59sU78ddDnZ0FyleiEbfYvVqEEDorH135Dm1L2iwM+kkGzS2KpGRcbIhoh1oK0LkHcwD7sMY12duT6goe/vahZkYapJBAJuhFjmSQSxWgMSQRPLDPluykaXV8M77n79u+DmHezLMjsh6HBkllroygdbIqDCOsoC5bW7xKBw+Z+rmKWmdvBo+GrSixZTc8Y0zkCYZNzR80cINNwbUfjOdH/TdIwsf86le33NYwy/1ML5YOJQXGz0Qw3Ap7hLfThOp+T8ThEjIOimwuX2D6ImILQXSZiy2pHMigfDacpI8u63GQ13oXrvqrEwTYy5mjUBSdxnOH5ty21pINKacO+tFA72IZpBNu0b0DKFJkpR09cL/MXFvyN0sB49igTH8qLhSVA+YIY9jSROIqkXauZUU6KudNEQl2Vbp+TmHdTmQPE/MRc4iBHcSg1KOSxzB5XW34zszwcbCNjsM3OulAhZhTDBthBY6bBSXuddJhM2J64Psifv+7wt/nxFPeNVmjTKCjEKT1IuI//nLGxnS1GwISdF+aWtTGRvA+r7YeYd0yAUBAsB4j1UYOXRhzBWNuyY4cNl9WAMn/UyKAGdrFYqzVkLdqURv0Y3IelwXWc3WtYRlTUkBDLMpXt5zq3+9v87bXMv1n3wrrtTsV4R6peK98O1QXLNswm+mALZ/Y0qZmRUl1asrYeStJpQ8mEQrffd2HkhbSlREEbo8BtHN5tGJPdjhn4tOEfLlpiHHE1MvtFkJofdEwOg6cJDh7OFG96ywflRbe9RpJaKq981fPllpsfh2aNRDi8NVTPprGhnqwF8r2vf598egsdsX4uzuoY+kc7aI6smgj5z0YHA2qK+wZRDMJrBGZbtuS6H6+Jq7A+KN1SunXdg3HUkljWzpyS59z0MHnejZfIcRyYEB3RHJLaWYnPfkTufO8vyYbczSB7Z987LkqV2LFJP4EZBUYcvaF9xqiTHVTL6eSYXPCY75RzrniGBNEx+Ktb7/tK//HpwsbAEmXVuJ0k8sIXv17ueO3b5Pprr5I7Xnmr3HjDFbxOj5Of9WpJvJ5VvT52YI2My1Gr3cJZvi73w90O0DixLFZIduh7x7SEsn2DKtalXdbcijU0qxpjPDgsMCIiTa7TwHDWwMZqGuxJ/DkBcVw3CSztVE1pj3hHpC/ZXq2lHMKgpnk1JjAlPxfawHpo/u0/ZUc9Q41MOctuZGLMHRIzh08xXcqf2XLdBg5zTIfUVveYZ/R57bUfszRtKoPOgSOlIWn2UeLZ5jtLjLt5GLgKQ8OjH+AgpayDrAR7Sq/LRIGmxCuTD69w4z9aZnatKZEYIzneRwxDTBFdOc3f/ca1vBL2YGQiGBkW04LpIf7a1eoZmerlaJ+pYSrUQMNrFAwM4UFjBRlhxbRdrAxSz7NVnx+EZzxURMGbE3Z39xXVF88wIZGi8AcRuUQgwobMhpoV20wJnf+yTIwUIt53leUDwn+KZYnMPxzfcE3qCzcwU4AMd88TXBYKwMNJ8+VUJXCkDibuOPnabxaSfjHRfUt4jowoE0yn969vtzJnDryRURRlvhxYI6Moyv6gRkZRlLmiRkZRlLmiRkZRlLmiRkZRloFUus8vcVl8lokd2VeVUCOjKMpcUSOjKMpcUSOjKMpcWXkjU3zcuqh5sah0y9JyKkzjFWVf0JGMoihzRY2MoihzZSWNDKcFTqPw/Y7jfxh7iWtcf6Pw4xknrr34VapL8fj5x7Vqx3bljcyoCt+L32HsNZ69+h/GuPH4/kb5VSpGgGOW/aJ30KseqnpsdbqkKMpcUSOjKMpcWUkj02q1MGRMpdPpyPbOjnTSxBO2e+KrDHOKi4KfrpLhQgROMTQo3TgppDs0zeHpMh0/3XyanhBxJ+4YPyWjbUWZGytnZEwn4iskQS2KpNGoS4j1QcL/rsybG32hdgJs7CksrPcUcolATlwvS48yYYrp5NYzP2PIxOepmFZXyHsY8kWfAmMTS6vdNu9nVpR5s3JGhp2pUa/hTM0PmqRmnV0p4ailK65bsZ8NFEYZOWHjuMqnt4c0qZmm2xOHLxHqwxjfGuoIxgexe1KU2bMaXytgCdBfTAeG89Ofu0/uvf8BOXt2Kzu7e+maL0QOJv/rVqzs4dX97ur/aODR8zw0iW7d+TCADWSjGa9eE1TQkXPOkYdecVzOO7YmNRPMT3zsAigTU3Y8M9xto+yQ5L5WcN1Vcvsrb5Wbrr9CMIM2n0TpHS0/TtsWxmsR+8PyGxnmntYFU4cHT8fyf//Ay+Rtf/hObObUgN+xxtKopAPlOvCQg59jkjKMijtrXD59xhBl7FojLp2blIR3ePGEEdyop431dfmPt/2I/JvvebIcWUfe1tesB0Y5IBplVgxpC8OMjH53abEjmZSmHZ3n9v/+/8oPv+Cl0rzoIah2O2UKkgh5zB2RDBbbU+mIoUBfxx9WHhd3xtD42bD8/A1Kh3G4/GbLoXlinC5emF1zDUdk68wZOXo4kfe8/Rfk6quPS9Dhd7/hM396VObCkHawokamejmahCiQGBX+kY9/VmTjfGmHkVWwlonusKDMjxHXa3Y5SH37R/j346YGxg8/Ji9uveCP4Vyezb4sXlOmYpz+uvMDd1Zefqp1GyeEdA11Aj+fv/tBiWGgO/ArdTUwynxYeiNDo89zQweOnVYiUX1dgijCWTmSsIZpQK0hQb2OZUHsVDwdwJ/dhiU/8DZIXX9OxfWiXPxufVD8Jf66bqierZsy0O38U8U8+OvYb8po1wMKadXqHFuyvlLZ7cQShKlsd1pmxqko82A1RjKABUmTjrR3tnBC5jQiMeuSxFjGWC+o+1AKTJRbFv346vpzKq6P0oD4TTx+XCXpGH9uX1EFv7l1KEvH1AH2c8lpEQctcaeNTbxupYMYZX4svZFh54jQSaiHXHKeBEFL6kEga5gi1IOONMIO3CJr8JmT8VMB4QiY/JXtc8rl2fl3YcYMi3SadX6SFwG2t2QDo71LLjhs6nAN7pU52yiVYzXaVmzPxrc868ny+Mc+THYevEvaJ+6S5BR0+m6JT90zQvdKfDpbDlLffi9sqQr7RsXfVTHebN2E97dDZtt93raiH7eeCf7bZ+6RcxqxfPM3fI1cdeUlUseor84pmRn92epUlFmyGs/J8IICztq7mB194EN/J2/9w3fKXXfew8xJFKxJHNfhLkk7d8dnnGrAKKBIabyMqxjfqPiLcSPeYpBcvL2dQd/t+bJ6RlnDtjSaNXnsY6+VZ3z9k+QRVxyTGkZ7gpGMue1UVj5lxvhtrsCwu0t8TuYVt8pNN2TPyeCQocln2J+KWOyxr9KRXA0jk+EKcu+9J+TBkyfNY/SB8Bb24CofdjBGVYwJO8DTkCQNU6frKPNcto2BcBxCGKoLLjxPNtYbOC4YAXYj488S5nt8FDKFkdGH8RZvZBxnts5iCtDAsUIn4kN5vEU7gHBE6ZPekcxhmsOQsGwvg3bPMuywePKgNlL+rosuGJuQv2VibMQu7c8MlPly8IxMlfIyM9ab61LnFADUa6HwQddBov0ZprIwFPpoqX+nsjBOo8Jyf1k4J98v74CPp0BqdQSGVYpQN+bkYBqzGhZlvqDVrR5m1A/xh5LsVJwi8KRtl5wy8Iy+d7mw48ZR9D9OmDINC88pUHFbXnZKxCVPkVHEaZFbqoFR5s9KGpk87EiuM/nug4Jf3rHnVooyM1bcyLB4RaPC9Wyo4wljnFKV+Z2lZp0mxjsF2Rk7xjSeP1cnvb1WijJ72OJWmBhi59EzOBl+x2vFm8IqsKTNeDValr3c0MWer3kej3HO7mDNqXfWDjLxTgtV3F4mPzxVHDP46vdvYT+n/Cy7bYPkx8N4/XS4zf/n++1XCkNDwRUEUOSprIQqqhJ9G5mwbQFLuguZsm2+pypRtfzMGHdYfFzXzYs3u8u2z06DGd2Iy+KbRtM2ReZ4kBQlz2oZmW4bZ7EiqAbVsyXXub2s01kjU6Yyv5OpH79bOne3CDnK4itXWRmcev7mSXkJlIPLShgZ87xH1n+M27Rzv1M5DWev3YNpDdM40NuYXg2TpjNbyurWl6L0WI034yF688gH1OrwFQbY4J6e5H56GIC7GOqe7C0+AVyc+05OloCBIwubNpfc46djffoJj5+J4Rd38+kMxoukL8A4EYzIxEJAnsbMehSlUm/02ipLM7sSDW6L3Tab5VNfv5lRGSODqONY5OxWR3Z2+A4VpkXxyVamX15M38iYQ+x5M7umqh2Hidk6DZMYGX99MMOMjNlloil6KllnRCZTxXRH5YVxFeNbNFl5cgzKYyprzVQOH+HXHOwWLgb53jsHz8hUL0cTYJ7wxYFptVPZ3m7n3tkUd0Isg0y97d39mXx3VxgVFf1PrrQrvvLSpOni5+gLy556fq1cHKOVj6eggeVx9ZPJ1RmXRcVjqCzcotUtH93+er/aaEetFirGNKthBlUZh6U2Mjz8PC8Ywarv7sY4+UY4A4VduY+ahWENqncVZIqcgkzeNt+fkx/H+GLaVoFZRoifecovncyvxzO/1n8+776K+fPzX1TPfy9uK6bniT856Ar16KuQt34xfCHMwuWVJeQSJ6aCzO/JMtHIt9CW2MA4WDCjdSO4hwxE5kpvgNMdAft0+wFU3LdoltrIFElhaQJzJ6kIm0pBHAu7CzmQ++fWjZyfTH37J1E3vu7CLH0vPT+Z8jvzmsZvV+XeV0/ofrzo5tycxvcJ29GLU4xo6C03zVp07/WyknMXWHQ2i6yUkVGU8RneFbl3uquVikONjKIoc2VFjIw95WCwa67NmDmrE/cWt0GTUBbPXjUJZfE4KZPCpl8mrdRZw1pVFKUMY294muLpS+dOk6JGRlHK8B9cMpgxsXUqe0KNjKKMS5/h2Wf85AtZ4aDLV5VQI6MoQ8l6M29v022WC4BJZ05z9z1zO3wDU9y3aNTIKEofxWGCb1gK+5SRqJFRlFKqZkyYn7I8Vd/oqZFRDiZ9zwL4mifFtIoaxCAjQ6ptaNTIKEqOcTr8NPjxFzUpamQUZcmYpsPvE0uQRYcaGUVZNroGhiOYBd3t2gNqZBRlGQhS4ZcmCN9xU5wg0dT4qhJqZBRFmStqZBRFmStqZBRFmStqZBSlj328Jcyk9jG5RaBGRlFyuF6/4j1/H1EjoxxMzK8MPS3KuEz7HN4SoEZGUZaE7NXmpThbVUWbpUZGUZYB8xsr63TfzbBYlzMuTlVCjYxyQClOkTxlD73Nh0JaOY1J12sVTUo/amSUA0qxg/vKgNM8W+ttmh6XxiCNyR68LpqVMDLmMWtUeiMKpdNu5a/pYX9uXaUqUa1mvzaaJIkk/KYvtlm6jgpT7W68GiMZ8xWuVKJaILWoJmEQeEIhc+sqVV5RFKEJ2WlHAENTq9eMqgW7atnUSKdL+waNSb0usrZWk3a7I+0O1I4z0a1SeeqgXbCNQLu7u0btdhvGJjWjmuYaP5KNhhWgi8AQVYPqG5QyAlTqVONB8yHyJJVOEsqb3vJBedFtr5GklsorX/V8ueXmx0kDfoLuO1Jna9Ps+IV5iGFkQnM22t0RQXbsDkUZhN9f0VZgazCi4bTJnqxCuG0TSthJjMsR8Av9EzPkN9LuDX1ZctuYur3wxa+XO177Nrn+2qvkjlfeKjfecAWmdDafvTIkXs+q3rhhqY2Mg3kIcLap2k/cleWB3+Hvo9uJuZOaRfud0Mhcd5XcDiNz0/VXSIz9NDLd7OXitHmskqmpntlTlEWQ9e+clJmwEkaGoxhFUarJSo1kiicilWpcjWY8X0o/amRUKmg44/lSytFrMoqizBU1MoqizBU1MoqyDKSYsGW3ts0yczv8qV/VJnZqZBRlCSkaEjUyiqIcWNTIKIoyV9TIKIoyV9TIKIoyV1bLyJRcdV8KXL6XNf+KMoTVMjJBbDXTTluMzNeEMCh/OEtNEY1ycCk2myo3oxUyMuyxbdR2R1I4Kb53g69TjONY4mSA4nSIEukg7EB1sL+r1LyTZJRiZJFK4E4QJkHYlBnl6zCckVTLoxQJ0Cqye9PujRA+/nmLqhIrYGT4hl90VKNAkjSEccg6NDs+3O0klTaMBsX1Thx44nq52mbp+y0IRzMvvldnuNoplr5gYBIs2Uhg1vCXqlozUZTJWYGXVrGDxlknDZGXUD784c+gmwb2UzUB99Ps42+3pIXTwEAQdmj1+PGMGydAfQTIM0Mgl3L84vPl+PHzJMIohq/eCoRvXpvm7WtKdRlyAlnRl1athJHh1CXGCEbCUH7jN/5Qfv/334181XDM2IXhA8nT1Fjv2YEcCxPaOkvxymPiHad8yEmI+VK4a4we9ehrHibf8923yA3XP1TqtQTGJv/5LmWVUCOzZxZtZJj5GOnHOEDvfs/fy/f965fIyW1MnYI17IvMC60C9GSjroHpHZ5h2HdhDasevzzwTEM3CuSDRiaO7KdbQtRbI23Lc571NPmJn3ieXHbpMVlvhBLxzejKCnLwjEyV8jIxKV/QitnFWzCC+fJ9ZyXaOE/S9XMlWT9f4vWjEjcPSby2KZ21DavGeGo31nthylQMs0b/I2TiRV4ah7E8guVROb0byd/87SeQ9/skiDjNUwOjrA6rYWQwH+J0aKfVkqiJDpwE0sZZoY3OiomJUYfC6KCD/tuBURpHMfzGiGOg6McJw5Jx1Q5CqI68NKSTNmAk12S3be9kRVGYjaAUZTVYESMD4wErEoQYNoYd87EudtY03MWooINlIElYkySIsMSQh5+0GFPpmOL1IDs1Gy36lYDftKjjANQlgFGM4EpjbOfId9gMTTmYoE3g/GTg0rkdPC+xMztViarlZyLqMBwJOup6sy6NOvppvCNpsoshCwV3qy1JC8YmU9KGuMwkJbL+4m6YQer6382vD1OwG4vswppwibyl7ZbwW2Lr9UDqtFc6klH2SJWbzEoYGbLREHn2tzxDdk/dJw2MaNYxhTkE47OOacl6GsoGtJ5gSWHEsImlE9eL2jTLwPofJhembN8gMV4TNwxL2pH1WiqPvupKOX7BuTB6LVhJHcooq8NKGJmd1i6mS4l8/dOuktvv+FkYmfulGdwLA3OPHMLyUHifbMJNbciXZR1qeloLytWE/7LtTn7YJpdYb4yS8Yu8wL0R3IWwd8szv+EG+bEf+Q556BUXSr3RwLRPhzLK6rAaX5DMRNwlDS4pdleK24zbK+3Irgy/LudFivGMjMsBjyZvWQDGg0GXCU/bwiU/v6ysKoNaFBh2Czv7TC1vYfO5r1rderX4cVav8axEc2ZdsyAhjk6UqQ6tofIbWPISa+T8wHOUyXeXiddnowHi9eOuO1NZHEUFsCgRFfD73bG5WJ1GMNQQZl3CO1qe/VKU7omIWkbQrFcAU/m05nwsv41CUR3Ifogc/ba7XDjmbOXywhvvMXIZZ//gwqhvyLlOUZaO1TAy3bmLMyfOpNiu7K85FX2VyfjxziJF+X4N/oZByggQe2j+2l8qufy4PCnzBYdvTPX/U/YG2/QKweKwyzr1uqzrwE5+vx8mTqnGER9/4SBllOgvyP6FyCPFf3WjEFM7Gh9l3vQbkzKV/1P2xgq1Z/TeUvXo37J4nMGx/6qXP0WZlhUxMto9FaWq6MhcUUpwEyP7LiI9iU3DyhkZ89wOxNdu7qf4Cs2y7YsV60Em1P7XoVVZXsbVsDzn68K9npVPifkqZ7FGxr+mt4yshJFh20B7MbgfIYZhuO+KplBZfNOL9YCDPJEWU4f4P4WG5TlfF91nntBxzfNLWQd2hqdLRXo2s2SE7PBBTrZ3X1VmpZ74ZUnYWE6f3jHb7dYyhjcc3p428e1D+3I53IekZkCxPpch170886VlzLF72pqEmXUJAr7gjO0zlQhWp96wr9xwvcN6s+0YJsssJ2OISTANjona1bInfm+84QpjCPnSql712+fBLPPpY9Ow1EaGGadY1ywFf+S8dTaV3R2+QYY7+g+ofaQmO5gLYKrKnhWmEqBx3uTn48I59hp+GsyxZAfc43Hz2oB7nMpEkeXd/U7M7QvhqNVC2TxUkwYaL9+6SAuzcCOjb8ZbPDQyMYxMp82DhNaRie/6TcRXHdspHKUSpSZMT5LMWIyzoBSmmD+AmJ/qULEeRolhCmFRbz0392XuPrmw06gs3lEqCZvlmT8ucTLHmkuuJ1FOcRxKpxOYtmROv07KxKyEkTHtALbFfNsILcPMWalsexFuG6QiZX4Gaa8w38yntuFqwe9ttfguIR4YDmEmOLazxrRxT6S4XlVWxshwVNtG48hR1jiGNpjJW5MJyT+j5GGH4PtEWR78bUX5lG33txU1K8ri9LcV5cht93eMB41LgrbUdxFYmYiVmS5xas3blMScfIzsnaac+K9su5Efdm9igy7bPkz5vM5TZWUdIbQMLLJlyf6RcmlPKBzQ8niHyYUvbvPXx5E9nlXCZcnPWnG9qqyMkWHDsI9PKcr0sD2Zm01V78FLwMoYGQfPRNahBkeZHGNksqUyHStjZLomhY6cgcHwN/U06tTEsBPKfBJ3hHz/5oNzyPC+KJ80xPoobitoYLgRYYtpT6K+eMfMb19Yl19jMrrCLhwPK+Lc5qujXLptdvfiycpDzLKQMRbDV5VYaiPTq1B0YLPsB80r969quDLsr3q1sXdNE3YaTZNu/5auIaG4qQtX+I5Fa4iqSi7LwJaqpyqxctMlRdkrZcbEXADm0q4qU6BGRlH6sAbGoFZmalbGyLAg/Hi9WeLUFKaJfUVmlce8ysJwr1B1Goa9+EtPdCy2y7A9m3YNt2nrmapM1fM3Ela2nmyU/WExLc0ZFt8YLlObX3ojoyhKtVEjoygD0BHybFAjoyiAU5KiiLv+oUyOGhlFUeaKGhlFUebKShkZDmt1aKso1WJljIwxMIU5tZOiFNE2sn/odElRlLmiRkZRlLmykkbG/mS/J0Uh/vRoL22Eu30pe0NHMooyBmpkJkeNjKIoc0WNjKIoc2UljAzf/pHEKEwUmk+jKMoo/OszlA9f7ZCm2Ttl6LZbzd9FUsjm0qAjGUUpo0IXX3hh2nwE0MvTMhmcFTUyy2rzlWrA9lPNNtQ1OHDzU4ZOVWaljExUQ4HCFEPdWFLMm6wSlcoqHSz8yZRIGCTmg/ZuNOMNICpD0QRy3VeVWBkjww9xra9DG5hLw8jYT2Ow8VBtqDWhGNapbL9qWZQOVFuiIM6USKMRyHozKr1eszA4esmsnVkWLJ9vYKqSZUeQgsw9EQzOEUMnCeVNb/mgvOi210hSS+WVr3q+3HLz46QBPwEOnGU+No0fRDGFQO3HscjubgfHIEsLO1IOKCc9HZmIGRiOSeNQKk+3ieIY12qBrMHImGOfO+amMYBpGoJLqARnPbJktjH6euGLXy93vPZtcv11V8ntr7xVbrr+Culgfx0jrV4u/Dhtu6/S6GEFjAwNDIa8xs3485+y4PbJCzhV1SjLROG2ZBiWtdVZtOPJjMx1npGJsZ9GpkfiGRybt3n0tEmpUl4mgEfDbxx2Pfs+IMQDSrn1vUpZVdyJyCkMMfb1VDWK+SXF9aqy5EbGwWJQfnU7AzONoSH+oVStior/+v0os2LJjQwbgzMuo+QM0V5EisZKUdxJSxkH15NWEBoWh++elqLRUa2exjEgamTGZSWMTHGcYrEjGP4LjfJ+xhPD6b9V/Fd2tHsadFIq+ttHYNPc7fSyW+sLzNlIqpafGVPFKleUg4X2QEVR5ooaGUVR5ooaGUVZAuwVRnstxnx8H25fVUaNjKJUHHeht3ixd1lQI6MoylxRI6MoylxRI6MoylxRI6MoylxRI6MoFYdvgHBaRtTIKEpVcEYkW/Jmkruh5LuXDTUyirKvjBiOZLu7XycY4X0ZmK+RWYEKUpTZwk7Bblcmr8Pk+g73LS8zzj1qJs2izD055CpRUZRxiYyhsa+fMF9UcOQMUPWZac83L1bgOC+JETFfg6koyrh0r7tk78Rm/2k00ZNgYDpJKu1WDGH7QTYypoLqDfMBpHac2nczd18irijKKOz4P3s5PlZOnjqF1VSiKJRGo47lATcy9Xoka2s12dnZlU67k1UGq81WnaIo4xJKB39PPHAa/ShA36pJc71hPjq3bDOEmRkZGhR+q4Yfxjp7Zkva2+3ssowaGEWxuBPuIFmcK8BU4MSJLeHXWTY2m7Kx0Vw+CwOmMjLdTzah4Pw87MZGDSOZEAZmV06cxPyxzV30496bqlIddNkLuf1y+z3f2HznXQ9gihTI+RcelaNHD5splNOyMNPp0pEjh+Xcc4+iAgL5/OcelJMnt7M9rJFipapUB03GdBS2+bJ73fKLd8Xy5bsflAhDmfPOPyLr66H96rLz4DxXnJkamfMvOFceftVDpdFsygf+8iPypTu/jHrg+I61wUp0NaNSHVSRsu2Umw2hW2L1z/78I3LmTEuahzbkYVdeLrW69WCudUI2RPWZysjwgpRb0nn++RtyzdUXy5HNNfn0339S/vkLJ6TViaST8BIWb8PFEJfliuMB4j6MDwcpwdx1mMrCOJX5d4qpkjBOZWGcpgpb4r+rEv++SsM4lfj3VRomU5l/X2VhnMr8O616HadxUXHJNquEN0sQBx/13W2JvP3t70R8IscwVXrCEx5r+loXZ2wMdDhVj5mOZBprgTzyUZfIZVdcJKfPbMkb/58/wZDvPukEDdlFxcVSh2rSgbj0lZRsyysaqCSAuCwT9pWFcZoq7DANCVvqv6CycNTQ/EJlYZymKuuiwg7TkLCl/gsqC0cNzS9UFsapL2xfXPUBQh9IItnZDqQdi/z5Oz4u7//AR+Xw5oZcfdWl0HlZL7PkzUm1jcxMPrhvllAM03pia1f+y8/9rrzu9j+QtfVAXvVrL5Obn/FoObxGX7YS6HeWVTIsLqY1rIDThB1moe0MezCLCLuoepom7CrU8aCyO1z5Wxjw1+F5Bwl8+7e/XP7i/3xMjp3XlNe+9j/Iv/jaR0qI7RH88W5TbxRTfWZmZFjxHZS8jeVb/+iv5OX/+Q1y95cfkMPnNOWhD79ATjxwrzRqDey1h88cjHFThud0SK3yxcoDQbBhjWJYWP5AbVjUk4ZlSYaVnQ9ND2JRYYfWMZg07LzqmFTh+JTmofCAKr3w2mU7CWVtbVPa7UA+95k75fT9J+Vrnvpo+YO3vVw2G6F5uJXxh/hzoIyMg5HsprFs0YXKevl//k153W+8XbbjOuabHUlrMC47NEHeOWIvKbNmBzEqnmEHZF5hRzWCRYStYj2RScPOq57IpGFHlXXYKa/RxJ9I1utN6exuSSM8K3/zoTfLlZfXMJlKzV1bdx10mZipkWH17cLcdmDqT2+J/MAP/Rd5x7s/Ko2182S7jUoKI3MGcQw7W/QxxMiMisdPs8iwsGbXpGFHtIWFhEW4obsnLCvROs5AOH8348l7H2JksCtIE4mCtnRaD8hbf+92+eqnHJcNzJOSdBfmZw1GZthErprMzMh0QWyoEgwpA/nrj90p//5Hf0k+9vF7JaChSdo4QKzyvSaJMKPqdi9R+kd9WLh86+gxaY1Nk+4s0iSLSHevaZJFpDuLNEkhnv6kfENj94bohptRXaRzFjohL/zp75Mf+ffPlBjGpQlLtYZ/9Mt/y8ZsjUxsF510B7UGqxA25P1/9QW57bZflQ/+zWckaZwncWMDwz54ZF0xaWN0XMUNycqoYaIXdNRhGHUWG8Wws9wwpkl3EWmSg5TuvNL0z4/2CXiEwT/z6Af2choUdloi2w/IeZup/MAPPk9+8NZvkfpaII2oJQ34ob8AkyY1MowJ0aU4WnSa+SMcn/7sPfLyn3+tvP2P/15OtPn7i1SiZkM6cUekFkmAaRSvhaUJjE+Wm75MDavbgudxDkM3SObZrfeFnSDuQeSiQkT+ei7eGaZJutFlEbn1vnhXIN1cVIjIX8/FO8M0STe6LCK3zlV7HcVeTzFu9o84liiKMDUKpbXbkVpnW6556Ka84N8+R5733KdJWFuzl2ikjTCMjealZpYm8iydZWDm0yU/OuPG/wTzzK12TV716jfLW9/yXvnU5/5Z0vomjAxqql6TMKphvglLzaAQ688/O5jNQyqV4fzdJp4RuPjcnQK3zN0NgDs3SyukMwlMl0n4y7L8F9enwQRHhGaQ7i2L6RTL7u+bBK1jG68bfQQBWjnW7UOmLWyN0UfacvScpnz1k6+RF3zfs+UJNz1UGjA8vJMU0qYwJnc3CuEZm0nMRrkUzNXIOBJs6+BI87nfv3jfJ+Qd7/pL+RCmUf/wD5+XU9u7pkIjtMAw5ZDQVqJroI7iuk+xgYzTYFx8uSXC+cn0xcs/Y8Q9jLJ0R+V/nPIMBWm4KJiece9DumVlXVQdj0x3yjTHqmO075CGIsCJNYzlvPMOyQ03PUye8KRHybO+8XHyyEvPlSDGNAoRGANjbAsjgJj5JbzoS2Z/4dfDRZ3wZwGoJb4vj3W8i+HhRz7+Jfnbj39CPv+Fe+Uzn/5nufuLX5Y2trOCi5Rs6mMvjcbFV1wasuPZpbA+TWMclu6o/E+abjct/llEuiVpkly8cPu7J02TDEt37mXln6HpBtJc35RHPeoqecQjL5bLLj8mN950tVx66RGpwf8abEiAUQ5PtLyk6UeSzbiWkn0xMoQuXuDi9ZoEwz8MFCVOIzl7ti133XWf3H//CYnbMEVexfoHyj+ARfzG4dzDjofz7uJ3w3iHW83Fyz9jxD0MP12jbN3h0vDjH6c8w/DTJMWyEm7yy0rmna5bXUgdc+mnO8M0yaA65lMYa42GHD9+sZx/wTmyVrchaVSYhwhzqTDgdUmsY9RiXmXrgNMYmiVkX4wMEjFLcxTwP0GN8nJMgvUYFekywKmnO+Bm4VUq191BzIEdk8zpXfwuXrMO/LDMS3d9zHhH4dJ1c3au5+LFhllfoyBMx5Qzi6yYbq6swB2HaTBRME26syUZmK7vngKXblXq2Ah/aGSYLt2YFdmy4w/303cQJtiPjeZl/LxGafcY4FQjU0LPyGQXrlhTrDjUFrfwjjcrzu3lRTHWI+W2OYZlkv59cg1oAH78jNtky61kFOPlenHbXnHpmmQQGZej0h2nPMMw5bPOgekW0+R6cdte0Tq26RTTIuwS3X3mwi5G8TQ47BCZkelaKwKnGpmRIBlX+6xHrnI9O7qsv0XVod8ZyLQNbhxYdFMdGftV/mK6+1FWonVsMd0NxoP7u3kxw0ZanayW1MgoijIpw7ubb4oz0+QMjRoZRVHGYZruZh/qWz72Y9SqKMoBRkcyiqLMFR3JKIoyV9TIKIoyV9TIKIoyV9TIKIoyV9TIKIoyV9TIKIoyV9TIKIoyV9TIKIoyV9TIKIoyV9TIKIoyV9TIKIoyV9TIKIoyV9TIKIoyR0T+f2c0NuRTlwh+AAAAAElFTkSuQmCC;fontStyle=1;imageBorder=default;fontSize=11;labelPosition=left;align=center;spacing=8;spacingLeft=5;spacingRight=84;sketch=1;curveFitting=1;jiggle=2;" vertex="1" parent="1">
          <mxGeometry x="167.89" y="51.20999999999998" width="25.07" height="39.79" as="geometry" />
        </mxCell>
        <mxCell id="mdb3Ze5MWpPQNfukh6b--22" value="«Front End»" style="rounded=1;whiteSpace=wrap;html=1;dashed=1;verticalAlign=bottom;arcSize=3;labelBackgroundColor=none;sketch=1;curveFitting=1;jiggle=2;" vertex="1" parent="1">
          <mxGeometry x="579" y="33" width="399" height="532" as="geometry" />
        </mxCell>
        <mxCell id="mdb3Ze5MWpPQNfukh6b--23" value="«Web App React Js»&lt;br&gt;&lt;b&gt;Asissto&lt;/b&gt;" style="rounded=1;whiteSpace=wrap;html=1;dashed=1;align=center;verticalAlign=bottom;labelBackgroundColor=none;arcSize=2;sketch=1;curveFitting=1;jiggle=2;" vertex="1" parent="1">
          <mxGeometry x="581" y="42" width="391" height="507" as="geometry" />
        </mxCell>
        <mxCell id="Jb3Q6EL75hhn-5B-eM1H-9" value="" style="rounded=0;orthogonalLoop=1;jettySize=auto;html=1;exitX=0;exitY=0.5;exitDx=0;exitDy=0;entryX=0.5;entryY=0;entryDx=0;entryDy=0;dashed=1;labelBackgroundColor=none;fontColor=default;sketch=1;curveFitting=1;jiggle=2;edgeStyle=orthogonalEdgeStyle;" edge="1" parent="1" source="mUGOxh5Fce_MRK5jP5Q8-8" target="mdb3Ze5MWpPQNfukh6b--7">
          <mxGeometry relative="1" as="geometry">
            <mxPoint x="290" y="180" as="sourcePoint" />
            <mxPoint x="192" y="181" as="targetPoint" />
          </mxGeometry>
        </mxCell>
        <mxCell id="Kjyo0azC1G7526Ko5W_R-4" style="rounded=0;orthogonalLoop=1;jettySize=auto;html=1;dashed=1;entryX=0;entryY=0.5;entryDx=0;entryDy=0;exitX=1;exitY=0.5;exitDx=0;exitDy=0;startArrow=classic;startFill=1;endArrow=none;endFill=0;labelBackgroundColor=none;fontColor=default;sketch=1;curveFitting=1;jiggle=2;" edge="1" parent="1" source="f93a37mM0c5N_dRNb5_e-20" target="zcAJipV-lXxgZnZTuTz_-1">
          <mxGeometry relative="1" as="geometry" />
        </mxCell>
        <mxCell id="Kjyo0azC1G7526Ko5W_R-8" style="rounded=0;orthogonalLoop=1;jettySize=auto;html=1;entryX=0;entryY=0.5;entryDx=0;entryDy=0;exitX=1;exitY=0.5;exitDx=0;exitDy=0;dashed=1;startArrow=classic;startFill=1;endArrow=none;endFill=0;labelBackgroundColor=none;fontColor=default;sketch=1;curveFitting=1;jiggle=2;" edge="1" parent="1" source="f93a37mM0c5N_dRNb5_e-16" target="zcAJipV-lXxgZnZTuTz_-1">
          <mxGeometry relative="1" as="geometry" />
        </mxCell>
        <mxCell id="Kjyo0azC1G7526Ko5W_R-9" style="rounded=0;orthogonalLoop=1;jettySize=auto;html=1;entryX=0;entryY=0.5;entryDx=0;entryDy=0;exitX=1;exitY=0.5;exitDx=0;exitDy=0;dashed=1;startArrow=classic;startFill=1;endArrow=none;endFill=0;labelBackgroundColor=none;fontColor=default;sketch=1;curveFitting=1;jiggle=2;" edge="1" parent="1" source="mUGOxh5Fce_MRK5jP5Q8-4" target="zcAJipV-lXxgZnZTuTz_-1">
          <mxGeometry relative="1" as="geometry" />
        </mxCell>
        <mxCell id="TTcA1U2jYfs6R5Dzj3ES-4" style="rounded=0;orthogonalLoop=1;jettySize=auto;html=1;exitX=1;exitY=0.5;exitDx=0;exitDy=0;entryX=0;entryY=0.5;entryDx=0;entryDy=0;dashed=1;startArrow=classic;startFill=1;endArrow=none;endFill=0;labelBackgroundColor=none;fontColor=default;sketch=1;curveFitting=1;jiggle=2;" edge="1" parent="1" source="VyQp2-xuhxUAdIoyyeBl-1" target="zcAJipV-lXxgZnZTuTz_-1">
          <mxGeometry relative="1" as="geometry" />
        </mxCell>
        <mxCell id="7JoaUDh3SkBXLgYkTp-9-1" value="&lt;span style=&quot;text-wrap: nowrap;&quot;&gt;Migración&lt;/span&gt;" style="rounded=0;whiteSpace=wrap;html=1;fillColor=#e51400;fontColor=#ffffff;strokeColor=#B20000;" vertex="1" parent="1">
          <mxGeometry x="148" y="158" width="68" height="25" as="geometry" />
        </mxCell>
        <mxCell id="7JoaUDh3SkBXLgYkTp-9-3" style="rounded=0;orthogonalLoop=1;jettySize=auto;html=1;exitX=0;exitY=0.5;exitDx=0;exitDy=0;entryX=1;entryY=0.5;entryDx=0;entryDy=0;dashed=1;sketch=1;curveFitting=1;jiggle=2;" edge="1" parent="1" source="zcAJipV-lXxgZnZTuTz_-1" target="f93a37mM0c5N_dRNb5_e-9">
          <mxGeometry relative="1" as="geometry" />
        </mxCell>
        <mxCell id="X5hUA_uTFKV-zdQCsfpd-4" value="ETAPA 1" style="" parent="0" />
        <mxCell id="f93a37mM0c5N_dRNb5_e-16" value="«Microservicio»&lt;br&gt;&lt;b&gt;Proveedores&lt;/b&gt;" style="html=1;dropTarget=0;whiteSpace=wrap;flipV=0;flipH=0;labelBackgroundColor=none;sketch=1;curveFitting=1;jiggle=2;fillColor=#e3c800;strokeColor=#B09500;fontColor=#000000;" vertex="1" parent="X5hUA_uTFKV-zdQCsfpd-4">
          <mxGeometry x="271" y="144" width="150" height="40" as="geometry" />
        </mxCell>
        <mxCell id="f93a37mM0c5N_dRNb5_e-20" value="«Microservicio»&lt;br&gt;&lt;b&gt;Váucheres&lt;/b&gt;" style="html=1;dropTarget=0;whiteSpace=wrap;flipV=0;flipH=0;labelBackgroundColor=none;sketch=1;curveFitting=1;jiggle=2;fillColor=#e3c800;strokeColor=#B09500;fontColor=#000000;" vertex="1" parent="X5hUA_uTFKV-zdQCsfpd-4">
          <mxGeometry x="271" y="95" width="150" height="40" as="geometry" />
        </mxCell>
        <mxCell id="mdb3Ze5MWpPQNfukh6b--10" style="rounded=0;orthogonalLoop=1;jettySize=auto;html=1;entryX=1;entryY=0.5;entryDx=0;entryDy=0;dashed=1;exitX=0;exitY=0.5;exitDx=0;exitDy=0;labelBackgroundColor=none;fontColor=default;sketch=1;curveFitting=1;jiggle=2;" edge="1" parent="X5hUA_uTFKV-zdQCsfpd-4" source="f93a37mM0c5N_dRNb5_e-20" target="mdb3Ze5MWpPQNfukh6b--9">
          <mxGeometry relative="1" as="geometry">
            <mxPoint x="320" y="170" as="sourcePoint" />
          </mxGeometry>
        </mxCell>
        <mxCell id="mdb3Ze5MWpPQNfukh6b--24" value="«Módulo»&lt;br&gt;&lt;b&gt;Módulo Proveedores&lt;/b&gt;" style="rounded=1;whiteSpace=wrap;html=1;dashed=1;labelBackgroundColor=none;sketch=1;curveFitting=1;jiggle=2;fillColor=#e3c800;strokeColor=#B09500;fontColor=#000000;" vertex="1" parent="X5hUA_uTFKV-zdQCsfpd-4">
          <mxGeometry x="779" y="217" width="150" height="40" as="geometry" />
        </mxCell>
        <mxCell id="Jb3Q6EL75hhn-5B-eM1H-3" value="«Módulo»&lt;br&gt;&lt;b&gt;Inicio de sesión&lt;/b&gt;" style="rounded=1;whiteSpace=wrap;html=1;dashed=1;labelBackgroundColor=none;sketch=1;curveFitting=1;jiggle=2;" vertex="1" parent="X5hUA_uTFKV-zdQCsfpd-4">
          <mxGeometry x="779" y="172" width="150" height="40" as="geometry" />
        </mxCell>
        <mxCell id="mUGOxh5Fce_MRK5jP5Q8-8" value="«Origen de datos»&lt;br&gt;&lt;b&gt;Bitácora Antigua&lt;/b&gt;" style="html=1;dropTarget=0;whiteSpace=wrap;flipV=0;flipH=0;labelBackgroundColor=none;sketch=1;curveFitting=1;jiggle=2;" vertex="1" parent="X5hUA_uTFKV-zdQCsfpd-4">
          <mxGeometry x="88" y="184" width="134" height="40" as="geometry" />
        </mxCell>
        <mxCell id="Kjyo0azC1G7526Ko5W_R-1" value="«Origen de datos»&lt;br&gt;&lt;b&gt;Bitácora&lt;/b&gt;" style="html=1;dropTarget=0;whiteSpace=wrap;flipV=0;flipH=0;labelBackgroundColor=none;sketch=1;curveFitting=1;jiggle=2;" vertex="1" parent="X5hUA_uTFKV-zdQCsfpd-4">
          <mxGeometry x="91" y="252" width="131" height="40" as="geometry" />
        </mxCell>
        <mxCell id="Wz3GgkgSxca6qYmrW70Q-2" style="rounded=0;orthogonalLoop=1;jettySize=auto;html=1;entryX=1;entryY=0.5;entryDx=0;entryDy=0;exitX=0;exitY=0.5;exitDx=0;exitDy=0;dashed=1;" edge="1" parent="X5hUA_uTFKV-zdQCsfpd-4" source="mUGOxh5Fce_MRK5jP5Q8-4" target="mUGOxh5Fce_MRK5jP5Q8-8">
          <mxGeometry relative="1" as="geometry" />
        </mxCell>
        <mxCell id="Wz3GgkgSxca6qYmrW70Q-3" style="rounded=0;orthogonalLoop=1;jettySize=auto;html=1;entryX=1;entryY=0.5;entryDx=0;entryDy=0;exitX=0;exitY=0.5;exitDx=0;exitDy=0;dashed=1;" edge="1" parent="X5hUA_uTFKV-zdQCsfpd-4" source="mUGOxh5Fce_MRK5jP5Q8-4" target="Kjyo0azC1G7526Ko5W_R-1">
          <mxGeometry relative="1" as="geometry" />
        </mxCell>
        <mxCell id="mUGOxh5Fce_MRK5jP5Q8-4" value="«Microservicio»&lt;br&gt;&lt;b&gt;Asistencias/Eventos&lt;/b&gt;" style="html=1;dropTarget=0;whiteSpace=wrap;flipV=0;flipH=0;labelBackgroundColor=none;sketch=1;curveFitting=1;jiggle=2;fillColor=#fa6800;strokeColor=#C73500;fontColor=#000000;" vertex="1" parent="X5hUA_uTFKV-zdQCsfpd-4">
          <mxGeometry x="272" y="242" width="150" height="40" as="geometry" />
        </mxCell>
        <mxCell id="mdb3Ze5MWpPQNfukh6b--1" value="«Microservicio»&lt;br&gt;&lt;b&gt;Security&lt;/b&gt;" style="html=1;dropTarget=0;whiteSpace=wrap;flipV=0;flipH=0;labelBackgroundColor=none;sketch=1;curveFitting=1;jiggle=2;" vertex="1" parent="X5hUA_uTFKV-zdQCsfpd-4">
          <mxGeometry x="271" y="50" width="150" height="40" as="geometry" />
        </mxCell>
        <mxCell id="zcAJipV-lXxgZnZTuTz_-1" value="«Flujo»&lt;br&gt;&lt;b&gt;Asistencias Médicas&lt;/b&gt;" style="rounded=1;whiteSpace=wrap;html=1;dashed=1;labelBackgroundColor=none;sketch=1;curveFitting=1;jiggle=2;fillColor=#fa6800;strokeColor=#C73500;fontColor=#000000;" vertex="1" parent="X5hUA_uTFKV-zdQCsfpd-4">
          <mxGeometry x="617" y="171" width="150" height="40" as="geometry" />
        </mxCell>
        <mxCell id="f93a37mM0c5N_dRNb5_e-15" value="ETAPA 2" style="" parent="0" />
        <mxCell id="VyQp2-xuhxUAdIoyyeBl-1" value="«Microservicio»&lt;br&gt;&lt;b&gt;Compensaciones&lt;/b&gt;" style="html=1;dropTarget=0;whiteSpace=wrap;flipV=0;flipH=0;labelBackgroundColor=none;sketch=1;curveFitting=1;jiggle=2;fillColor=#b0e3e6;strokeColor=#0e8088;" vertex="1" parent="f93a37mM0c5N_dRNb5_e-15">
          <mxGeometry x="268" y="348" width="150" height="40" as="geometry" />
        </mxCell>
        <mxCell id="5c8vho6g3SVmtPcbNKeK-2" style="rounded=0;orthogonalLoop=1;jettySize=auto;html=1;entryX=0;entryY=0.5;entryDx=0;entryDy=0;exitX=1;exitY=0.5;exitDx=0;exitDy=0;dashed=1;startArrow=classic;startFill=1;endArrow=none;endFill=0;labelBackgroundColor=none;fontColor=default;sketch=1;curveFitting=1;jiggle=2;" edge="1" parent="f93a37mM0c5N_dRNb5_e-15" source="f93a37mM0c5N_dRNb5_e-7" target="zcAJipV-lXxgZnZTuTz_-1">
          <mxGeometry relative="1" as="geometry">
            <mxPoint x="590.77783203125" y="239.4444580078125" as="targetPoint" />
          </mxGeometry>
        </mxCell>
        <mxCell id="f93a37mM0c5N_dRNb5_e-7" value="«Microservicio»&lt;br&gt;&lt;b&gt;Facturas&lt;/b&gt;" style="html=1;dropTarget=0;whiteSpace=wrap;flipV=0;flipH=0;labelBackgroundColor=none;sketch=1;curveFitting=1;jiggle=2;fillColor=#b0e3e6;strokeColor=#0e8088;" vertex="1" parent="f93a37mM0c5N_dRNb5_e-15">
          <mxGeometry x="269" y="299" width="150" height="40" as="geometry" />
        </mxCell>
        <mxCell id="TTcA1U2jYfs6R5Dzj3ES-2" value="«Módulo»&lt;br&gt;&lt;b&gt;Compensaciones&lt;/b&gt;" style="rounded=1;whiteSpace=wrap;html=1;dashed=1;labelBackgroundColor=none;sketch=1;curveFitting=1;jiggle=2;fillColor=#b0e3e6;strokeColor=#0e8088;" vertex="1" parent="f93a37mM0c5N_dRNb5_e-15">
          <mxGeometry x="779" y="263" width="150" height="40" as="geometry" />
        </mxCell>
        <mxCell id="5c8vho6g3SVmtPcbNKeK-4" value="«Módulo»&lt;br&gt;&lt;b&gt;Módulo Facturas&lt;/b&gt;" style="rounded=1;whiteSpace=wrap;html=1;dashed=1;labelBackgroundColor=none;sketch=1;curveFitting=1;jiggle=2;fillColor=#b0e3e6;strokeColor=#0e8088;" vertex="1" parent="f93a37mM0c5N_dRNb5_e-15">
          <mxGeometry x="780" y="310" width="150" height="40" as="geometry" />
        </mxCell>
        <mxCell id="f93a37mM0c5N_dRNb5_e-5" value="ETAPA 3" parent="0" />
        <mxCell id="zcAJipV-lXxgZnZTuTz_-2" value="«Flujo»&lt;br&gt;&lt;b&gt;Asistencias Vuelos&lt;/b&gt;" style="rounded=1;whiteSpace=wrap;html=1;dashed=1;labelBackgroundColor=none;sketch=1;curveFitting=1;jiggle=2;" vertex="1" parent="f93a37mM0c5N_dRNb5_e-5">
          <mxGeometry x="617" y="217" width="150" height="40" as="geometry" />
        </mxCell>
        <mxCell id="zcAJipV-lXxgZnZTuTz_-4" value="«Flujo»&lt;br&gt;&lt;b&gt;Asistencias Nuevo&lt;/b&gt;" style="rounded=1;whiteSpace=wrap;html=1;dashed=1;labelBackgroundColor=none;sketch=1;curveFitting=1;jiggle=2;" vertex="1" parent="f93a37mM0c5N_dRNb5_e-5">
          <mxGeometry x="618" y="313" width="150" height="40" as="geometry" />
        </mxCell>
        <mxCell id="zcAJipV-lXxgZnZTuTz_-5" value="«Flujo»&lt;br&gt;&lt;b&gt;Asistencias Default&lt;/b&gt;" style="rounded=1;whiteSpace=wrap;html=1;dashed=1;labelBackgroundColor=none;sketch=1;curveFitting=1;jiggle=2;" vertex="1" parent="f93a37mM0c5N_dRNb5_e-5">
          <mxGeometry x="618" y="363" width="150" height="40" as="geometry" />
        </mxCell>
        <mxCell id="zcAJipV-lXxgZnZTuTz_-3" value="«Flujo»&lt;br&gt;&lt;b&gt;Asistencias Equipajes&lt;/b&gt;" style="rounded=1;whiteSpace=wrap;html=1;dashed=1;labelBackgroundColor=none;sketch=1;curveFitting=1;jiggle=2;" vertex="1" parent="f93a37mM0c5N_dRNb5_e-5">
          <mxGeometry x="618" y="264" width="150" height="40" as="geometry" />
        </mxCell>
        <mxCell id="f93a37mM0c5N_dRNb5_e-22" value="ETAPA Opcional" parent="0" />
        <mxCell id="zcAJipV-lXxgZnZTuTz_-10" style="rounded=0;orthogonalLoop=1;jettySize=auto;html=1;entryX=0.5;entryY=0;entryDx=0;entryDy=0;dashed=1;exitX=0.5;exitY=1;exitDx=0;exitDy=0;labelBackgroundColor=none;fontColor=default;sketch=1;curveFitting=1;jiggle=2;" edge="1" parent="f93a37mM0c5N_dRNb5_e-22" source="Kjyo0azC1G7526Ko5W_R-1" target="zcAJipV-lXxgZnZTuTz_-7">
          <mxGeometry relative="1" as="geometry" />
        </mxCell>
        <mxCell id="zcAJipV-lXxgZnZTuTz_-7" value="" style="shape=image;verticalLabelPosition=bottom;labelBackgroundColor=none;verticalAlign=top;aspect=fixed;imageAspect=0;image=data:image/png,iVBORw0KGgoAAAANSUhEUgAAAR0AAABbCAYAAABOHFG+AAAAAXNSR0IArs4c6QAAAARnQU1BAACxjwv8YQUAAAAJcEhZcwAADsMAAA7DAcdvqGQAABkrSURBVHhe7Z0HmBTF08aLIOmQzAGSMygcUQUkGFAkiAEwoWQk5yigJEEBTxRBwCOIgBJM/FWCRxBBQECUnCWD5BxE1K/fmd6PnrnZvd2Z3bndo3489zA9e2luZ96uqq6qTvGfgBiGYVwipfyfYRjGFVh0GIZxFRYdhmFchUWHYRhXYdFhGMZVWHQYhnEVFh2GYVyFRYdhGFdh0WEYxlVYdBiGcRUWHYZhXIVFh2EYV2HRYRjGVVh0GIZxFRYdhmFchUWHYRhXYdFhGMZVWHQYhnEVFh2GYVwlvHskr/yaaM1Cou0biDJnIypbjaheM6ICJeQnMAwTaYSn6Fy5SDS8JdHuTfKEQooURA1bE7UcJE8wDBNJhKd7NWmgteAAaOSCKUQrvpQnGIaJJMJPdP7YTrT6O/04VWqiNoOJZm8hiv2W6LEm+nnwyUh5wDBMJBF+orPnd3kgePxFogbCzYrKRFS0LNErfeULgotnic6fkgOGYSKF8BOdEwfkgaDIvfJAkjUnUa4CciA4eUQeMAwTKYSf6OTMKw8EqtUDzp4QQnNYDgR5CskDhmEihfATnfzF5YFg7WJ9yfzqJaKNy4je7SJfEGTLRZQ5uxwwDBMphN+S+T+3iAa9RLRzgzzhhbZDiOq3kAOGYSKF8LN0sGI1MI4oppo8YUGdl1lwGCZCCd+M5P/+JfrfNKINS4l2/UqUPiNR7gJEz7xG9FB9+UkMw0Qa4V0GwTBMsoNFxwd79uyl02fO0MWLF+ny5SuUNm1ayp49G0VH56SSJbj+K7lz8+ZNOnP2rPb+R2WIoqxZs9Ddd98tX01+nDx5is5fuCDu8zSUJUsWyio+QkHwRefmX0T7NhPtFR87NxJdviBfCJBMWYlKVSYqUZ6otPjfJTZs/JWWLVtBm7dsoWvXrsuz1pQpcx+92vQlKlWqpDwTGN99v5DipkyXo+DyXuwoKlqkiBwZ+fPkSWrXvrMc6Yx6+y3b12Fm565d1P/1N+SIqFxMWRo29E05Sgge6mYt2shRcHn2mYbUovmrcpQ4a9asozVr19Hu3Xvo1OnT8uxtoqKiqEqVB6ha1SpUuVJFedaaf//9lzp27kYnTvwpz4h75r57acRbQ+UoOOAR7tKtJx05clSeIXrk4ZrUvZuy2mvBjp27aMWKldr7pX6thzRp0lDFCuXF9T6ofT9vbN++g35Zv4GuXb9OMWXKiO+7k6qKvw/e93EfTqAnHq9tuLdSDRHIY+fEzyEa3JRoyWdEv68iOrqf6PQxex9H94nv8RPRsnlE304jypGbqFBp+YOCz4GDB+nd2Pfpiy+/pqNHj9Hff9+Sr3jn1KnTtHTZcjorZsMY8QdOnTq1fMU/9uzdS5s2mXKRgkSdOo9TtqxCuC24cvUqfffdQjnSwY33ZJ0nKGVK52sLZ4R1uFQIt4fcuXLRI4/UkqOE/PXXX/T1N/+To+BSWtzs5cuXkyPv4AEc/tbb9P2ixXT48BG6eu2afMXI33//TQcOHKSfflpNq39eQ9E5c1DevPfIV42kSJGC8uXLRz/+KO5jCYQMk4G3r7HDD/HLtInSAyzygQP6U/r06eUZI3/+eZLefe8DmjX7c9r/xx906dIl+YqRf/75h44eO0brfllPS5bE011ChEoULyZfvQ0s/4wZM9KtW7eEwDxGK1b+JJ6NU1S0aBH66usFmlegXm9wVq8unBFi8wrRhP5E16/Kk0EEeTpjexCNbCueGJuWkw9+3fQb9e07gLZt2y7PBEb80uXUo2dfOn7ihDwTeRw7dpy+WfCtHN1ZYKJ5fcAbdOiwknjqB5ic3ho5Svt6b5QvF0P3V64kRzrTPpmhWUHBAII9W4iHSqPnnqFs2awnHFgk3Xv2od9+C2yyg9v1cdxUem/sOHnGO6lTpdYm4NU/rxUWUsLJxrno3PqbqH8jos2r5YkQsj5e/KzGei5PkFi1+mcaNnwk3RQzmJkMGdJrKl2zZnV6vkkjzXqAeZw5c2b5GbeB4PTu83pEC8+cufOFlXJWju4M5n/xFc2cJSxzCzJmjNLeb88HLDYr8PVz530hRwlp3aoFpUqVSo5Ic7cWCosqGODnXlQsFYjNc88+LUdGIDgj3x5N14UbZAau1H3KtRYubJ3tv/KnVTRqdKwcWQN374EH7qd4YYGVKWMqZRI4j+lMH0G0IE4OJE8KF6vSI0T3PSieXJuBN/TU2f6LLjTL5suTkueFr/pyLzmwD2IbXbv10mYLlZiyZejFF5pob4I3ft+8hT6aOFkLvqnkyhVNsWPe8SvgaI7pVH+oGvXpLSy6EGMV0/FQVfjv/fv1liN7BCOm881X8zT3JJRs2bqN3ngzYXwFfwNMMBUs3LJdu3bTosU/0I/ChTDTq2c3qlmjuhwZ+WTGTIMLCUGLmzxRm9jsAletY6dumsvnoVcP8TuISdLM6dNnxOd2TTC53lu6FNWvX1cTiTR33SXP6hw/fkK4bktpsXCtzEIFYWveTHg3EryOGCgWWmABwp1CnCincD/hdqnPgzNLB/kzquCgo9+klUTthRDdX9u+4ICMwpp48AmiLmOIxi8luqewfEEw70Oi/VvlwD6xwq81Cw4smuHDBvsUHACzefy4sVqgUgUi9MGHH8lR5LF23S+0VTyMdwKzZhndEjx0QwYP0kTXSnAAAqI9uneh0aNGaHEMlSlTP5FHCXnh+caUOVMmORJz6pWr9PmcuXJkjxmfzjIIjscqt2Le/C8TCE7rls3p7ZHDtcnOLDjgnnvyaEH4cR/EUsGCSqG1ALEaNUCO+BEEB+TLl1ebMAoUyK+dN0/AzkTne+WPnCatcH0mE+UuKE8EkXzFiPpNFM6i8odZNEse2AOrFFgSV2nfri01fflFOUocmKR4UxrUryfP6GzYsFELNEYq4ydMMtzMyZHde/ZoHyo9enT1KjZm8IAPG3rbmgOw2BYuWiJHRvDwvfrKy3Kk8/3CxZYrZP6A33316jVypNO+nfUKIAQOFosKJteGDRvIkW+ic+bUJmKPqHiA8NjBmegc2i0PBHWbGa2RYFOwFFHt5+VAcGiXPLCHOfgH4aj7pLCsbNC2TUtt+Vxl9mdz5FFkkC5dOnmku192byiQQvwLd9auFa67AiwYLIMHAlahmjR+To50li5dLo8SUrv2o4ZYCVaHpvqwjnwxafIUeaTzcK2aVKSI9fOHSVAFFpr5904MWGlt27SSIx24mFax0MSwLzoI5h7ZJweCYmXlQQgpUkYeCA7skAeBs2/ffm2pUKVx42flkT3atDLWguHBNVtS4YJZFNKlS5vAwkOA1W5Q+T/xL9zZts14/9Ty4pYkRsOnjNYC7itviwlwOTq2f02OdLAcbba4EuOnVavpjz8OyBHRXcI1UuMrZrbvMF5r1aoPalZ6oCDWdU+ePHKkJ0+aBc0f7IvOqaN6fZSHULhVZvIqyW5YNTt3Ug4C47ffN8sjnUcfedhx9iVmMHPuBYLNkUKD+nUNfjvcKwTKkytwhVSKW+Sf+EOmTHdTtWpGC2nrFu8xsRIlitND1arKkQ6sFn/Xc/C+TP/kUznSgdXibYkcXLhgvNaSxZX2MQECa01li49r9YZ90UGzrRTKl584KA9CiPoz0gh3AD11bGAWg0qVKsgjZ9So/pA80jl48JA8Cn+QFNi1c0c50kH+EpZZkyPXrhuT/zKkzyCPAqf2Y48altav37ghX7GmZYtmmnXiAVbL8hUr5cg3yKU6d+68HPleIvdg/n0yRNm/VlhJ6rXawb7oIKhbUEmbd+Du+M1+RVWLGGMogXDksLHNadmyitvmgFq1ahjeECfLoaHE7P54JtlixYrSY48+rA8kSAhLjkFlc67V5cuX5VHgVKpYQStt8Hw88/RT8hVrsIxsFooZM2YmWEk1g3wcuL0qLZsbBcyKLKZrvXTJ/rXCvVKvtUP7tvIV/7EvOkDtYRw/l+j0cTkIAWhTuvIbORA4EJ1Lyg0GP1tdynSC+Q3p3KmDfCVyaCFuYtQXeUBcx1fiW6SSI7ux6+QFk7sVapA1nFUpU4GgJBa8RxKiKky+lshVzKtOZtfSbZyJTr3m8kCA8oQRrYnO3l67DxqoxcLme9cUha7rfxGfCt401X+OcmBqJkcQozAv7eJhQGA8OZHdJDqbAiwLcArqo1q2MN7DX371jcF1UkGinXllzNsSuRmzwKKoOSlxJjrFYoiebS8HgoM7ibo+QbT8y+DUYEFkUDyK74niUQ/IRlZ7KQeA2VXAm88YebLO44agMpZ2kbuTnDDH8VAwqZYTuEGtmjW0wLIH3JveSjImTY4zTJa+lsjNVKpUUbPoPWD1NikTQJ2JDniphzE/B8WZ44QovCTcnx71iAa+YO+j25NCXMoSTRxgFLDCwqVDGYRNnFZ93AngBkVQWb1RcZP+vGatHEU+WEFCyYoHpOqjBu/KlSvyjDuYl9CXr/jRsBwOYJls2347ZprYErkZrKo+cL+xPczYD8ZrRb5JgXPRQSbyiHlEFS1aFyC4jPopOx9WyX8VHyYa6iwTmfEPBJXRpkAlLm6alpuRHICgmoO5sAD69Bugrdq5BVItzG0/1MQ/VKNPnWZMIGzc6FmfS+RWNGr0jDzSQTuW3n3707LlP8oz7uFcdAA2wXtzhpDtkUTpQhAjyZBRr8F6U/zxMxmDYkzowGyqBpXR3uCzz53VC4UT6B+EOiEVFDnC4nmtfSctax19lkINltBVNx/JguvWrdeOUVah1jhBbBCEDhQEndF8TAUFmmiy9UqzVvTpzNm0Y8dO+UpoCUHnwBtEe7cQ7RGzBboHYvtfO2QRQlainOwceL886RwsjeKP7AGR/WlTkiYJzlxlHgyGvDmQKlQQfzMfmKvMccPPm2NtQaJX0PgJE+VIzFIpU2qFrr6aUIVD50As/Xft0kmOvIPl44FvDNYad3kDD3rFChW0pfHy5WMoQ4bgT6wIIuPB94B6J3R/bN+xi1Y75cFbFbk/IDaH1hYbf90kzyQEkwyKmXGtiAVlyZKwjYtTgi86YY5d0UGAz1ezJm98Me8zr3kUkSA6oFef/prr4QF1Smhv6o1IEh2Ah3rw0OGGa/QF2kGgFUSdJx4Pai5W23YdtW6UHiDsatwFQecxo4Q34ZAx747Vuh76Q+FChahy5YpUr+6TAbt03giOe8Uka8xBZfSUQTOn5AJ624x+ZwS93r+PEJPKhoZbVqC1KfrjtG7bTvvf2zJ3oLRqqaSgCMyB3g7tAk/Es6J3r+408q2hmjCj7s4XcC+RkNjmtQ70wbgJlr2UAyVpLZ2TwqRFDo4Vd2chKlASET95IjiEl6WzSFg60+RIr+TNnz+fHNkD8QEEgX0RqKUD8Hvi9/WAfJ6PJ02w7MMbsKVz6RI1a95ajnTspth7gGuQWHmAN2B5rV+/UWvyhVU7xLJ8gb9f757dNcFyyoBBg7VG52awvN6zR1c5Ch43btzQAue4TpQHqfEjbzR7tamtuJIHd0UHBaLIu9m4Qo/5XDonX/ACAsjFhatQtqq+yZ7aT8cm4exeJVXnQH9EB53hEFxVU+jRDgRtPcxESudAf0EnvC1bt9LmLVu16nSrZXX8rq2E4Pvbo8YbsCSws4P6WOL+gcAHy73xBVa1cJ0QXBRzYmwFVtxgAdtp5O+ee4Wq9H7PEU0aJERnWeKCA66JNxe9l2eNIepWR08+TCKQpbvg6/mJfqirPckJWDStWhrbd6DP76FDgTUzj0SwwoWYxuv9+tDsmdO1bnvoGAlrzwNEYur0GVpjLifA0jVXodd5orYrggOQqY2uC927dhaT8SR6/70xWtuTPHlyy8/QwdY1SFi0gzuiA5Hp/Jiwbhykmh/7g6inmEUWGsv6GffA3kfq/kXIIRk3PnJbs9oFgWR0jIx9d1SCVbzP58wTLovvws3EMLdBTcqJDHlE6DI4NnY0lSsXI8/qYOsbbFETKKEXnfOniGKFL4pN+FTQG6fOy0Qvdrf+aCDMduxzpZrY//5DFDfYnYp2xhKzSY0VH+z9dSeCZe3R74w0LCvDff/ft9/JUfIBlu6wIW9QqZK3d7aFdTd7duAdMkMvOuN6G8sYsEPEuCVEE8SN2mGkteDgo40Ql/cXEU1eRVRd8ZPh60LE0MTLBub4yq1bQsiCCHIhVLzFcyIVzOwNn6ovRzpoEH71agj2O4sAsPLV7FVjScLKlclnZc8M+oirsTY08kcJSSCEVnQO7yH6Tdmqo0odohFz9VUpf4nOR9R7PFFjJecCu39uspe+jV7A6k6c3nY3tAMEB6sBHpLrvtfw8dVOiwgufzrTulDxTuDhWjUMD+Kx48cDfhAjBXOHTFg7gcb1Qis6O5SucyiV6PquHNgAhaVFlWZb2CfdJmoDJ/zR1IxPJ5w9awyOZ84cnD494Qb667YxrVot+SHe7+S6pAZlBj169dWS8V5q2pwmf2xsch4oyOvJpPRkwj0VjHyWYIAJAcmd7Tp0pqavtjSsKtolZ44c8kjHVza3FaEVne3r5IGgQi1n+2ClEtYJ9sHygKJQm+TObWxzeuhQcNqKmtuTetsRMjmA5X214yIeNASV8X+4kyplKq2SG9m/165dS1DVbYccOYw9aw6GyaoeVtgwGWD/ciz179/vfGJIeK2BPT+hFZ1tiuigJYVT1O+B1qXm4LSfYFN9lWA1cNq4yVjTcu+9peVR8qRzp/aG7F2Y2bB4wp2c0cLqVjgQhF7W5j5N1009mJMS1bLHljFOW1rcvGm81qtCuAMhtKIT7N66Yob6f7AFzi17bRbMu3f6W4fiC3Qk9FQGe0hsl9BIB5acOesXsZ3Ll0zJc2GS5OcBmd+qtYv3zmmLB7VmCmTJ7Gx3kWCCJX6VRYutNwT0l5OmLpLmHsyJEVrRUffCOrBdHjhAbcyeK79td+0+YYGouQ8wPZ1uaI8qYbX3LPrfqsuL4URKdRcPgRNNQA4HGo17wCrW7M9Ny6hh6HLFlDXu0zZl6nRDtnUgYH8zdQEBmF2QpCQmxrjxwLffLRRulnHfN3/Bde7abdynyxzjSYzQik5hpXn6GvFQXzgjBzZAy4x45WZ20Jgdaf/16taRI50Zn862bXbiTTCXSDztMB0+lPyr7lcmcKIJWlC5tTGoHAlb7zRoUFce6SC2Y26W5S94iFWwaml3H61QULNGjQSb66F4E8mdgWK1bXKgNWehFR11t4gbV4nG95MDG6AUQi0OVXf7tMFTT9U3VNhCwdG8yZ+CNxUE6fB1an4Objr0Gb5TqPLgA0HbxsctChYokKAFCLbJDbRJGVq4YsdNFZQxhEvdGEAuETZTVDl0+DC9N3acZR2ZNw4cOEhz582XIx00B1N3tfCH0IoOVpvU4C/KIUa11/so+wuCxXFDxHRyuxqbsufRs5kdAL++W5fbRY8AhZBomgSrJbE9iJB5iqQ4LEeaE+N69exmWX2dnEFQOdISIbGbgtkCwHY7HTp11dpX+AKTFARq9Jj35JnboJ1ouPHC8421uiqVVat/1q7VnzYl8fHLaMCgN8V1G5+LJk0C2xMdhL7K/Pxpop719XIID5nFxSNRsExVPX/HissXiHasJ1ofr7fA8IB2qGMW2N4NwgyEw2q/IcwOVatWocoVK2rHHs6dP6+1PcAbZgUKQ/296ULR2sJDJyEC6r7TKnaqzP1hztz5Wu2RmaRobeGhZo3qVMeH1YkCTWwoaAWS4DCTlyxZnPLl1duaoncOsnDXrFVWZhVQCIq6LCdMnBRHi5f8IEe6YLz80gtyZB80dx84aLAcGUEpR+lSpah06VJaAmBKYamhnen6jRtpzZp1lhnnMcK6HT7M+vv5wp3WFijWHNPJeZV41miivh8RlXbet0QFM5bTDeVgTqOnMG46fwlF50APaHVZtIiy97tCqEQHy8adu/TQvr9KUnQO9OCPCKBNKBYCnHJ/5Uo0cEA/x65VqEQHQEDGxI61Fc9RKVAgv9b4zI5FH1r3ygOKO2O/FXZnR/F02vyRjzQi+mhF0AUH4A1FKb+5utdfkAfRt0/PgAQnOQL3Cm5WpIGmVJgwzK5WIKCp1aCB/cMqlmNFtWpVqF/fXo5KdKoJDwDtau2GENwRHYCM4lf6Cn9mI1Gf8XpMRt0vywziNhCarrFEU9cSdRP/pw9diT+aEsVNnqDlnfj7hsBHxg075eOPtDeC0feFR2A50sD7PnnieK2XTCDig+vFA4j7IFLA+4N7HUKphg4SA64/JleIlpPm9EnbrjSM2btvn9Y57fTp08L8v6RlXWaMitKsmjy5c1GMcBkKFSooP9seqNU6ceKEHAUXtCxFcasVyErdo+RaoFVFMLOnEWRXiwCjxI2NBt/ewMrfzkQCt3bJkTOHrXIUtO9E9zyk+GNbGnQPxHufLWtWypU7Wov1lCtX1qsL64Tj4p44p9TxRUdHiw8vsc8gsHfvPq1VKWqo8LMPi/cuTdo02qoUfnaJ4sW0+wMxnGDAosMwjKu4514xDMMIWHQYhnEVFh2GYVyFRYdhGFdh0WEYxlVYdBiGcRUWHYZhXIVFh2EYV2HRYRjGVVh0GIZxFRYdhmFchUWHYRhXYdFhGMZVWHQYhnEVFh2GYVyFRYdhGBch+j/lNv12sW7QeQAAAABJRU5ErkJggg==;imageBorder=default;sketch=1;curveFitting=1;jiggle=2;" vertex="1" parent="f93a37mM0c5N_dRNb5_e-22">
          <mxGeometry x="109.99999999999999" y="486" width="93.96" height="30" as="geometry" />
        </mxCell>
        <mxCell id="zcAJipV-lXxgZnZTuTz_-11" style="edgeStyle=orthogonalEdgeStyle;rounded=0;orthogonalLoop=1;jettySize=auto;html=1;entryX=1;entryY=0.5;entryDx=0;entryDy=0;dashed=1;endArrow=none;endFill=0;startArrow=classic;startFill=1;exitX=0.5;exitY=1;exitDx=0;exitDy=0;labelBackgroundColor=none;fontColor=default;sketch=1;curveFitting=1;jiggle=2;" edge="1" parent="f93a37mM0c5N_dRNb5_e-22" source="zcAJipV-lXxgZnZTuTz_-7" target="zcAJipV-lXxgZnZTuTz_-12">
          <mxGeometry relative="1" as="geometry">
            <Array as="points">
              <mxPoint x="157" y="607" />
              <mxPoint x="949" y="607" />
              <mxPoint x="949" y="477" />
            </Array>
          </mxGeometry>
        </mxCell>
        <mxCell id="zcAJipV-lXxgZnZTuTz_-12" value="«Módulo»&lt;br&gt;&lt;b&gt;Recepción de llamadas&lt;/b&gt;" style="rounded=1;whiteSpace=wrap;html=1;dashed=1;labelBackgroundColor=none;sketch=1;curveFitting=1;jiggle=2;" vertex="1" parent="f93a37mM0c5N_dRNb5_e-22">
          <mxGeometry x="779" y="457" width="150" height="40" as="geometry" />
        </mxCell>
        <mxCell id="f93a37mM0c5N_dRNb5_e-9" value="«Microservicio»&lt;br&gt;&lt;b&gt;HistoriaClinica&lt;/b&gt;" style="html=1;dropTarget=0;whiteSpace=wrap;labelBackgroundColor=none;sketch=1;curveFitting=1;jiggle=2;fillColor=#fa6800;fontColor=#000000;strokeColor=#C73500;" vertex="1" parent="f93a37mM0c5N_dRNb5_e-22">
          <mxGeometry x="270" y="193" width="150" height="40" as="geometry" />
        </mxCell>
        <mxCell id="f93a37mM0c5N_dRNb5_e-11" value="«Microservicio»&lt;br&gt;&lt;b&gt;Satisfación&lt;/b&gt;" style="html=1;dropTarget=0;whiteSpace=wrap;labelBackgroundColor=none;sketch=1;curveFitting=1;jiggle=2;" vertex="1" parent="f93a37mM0c5N_dRNb5_e-22">
          <mxGeometry x="271" y="506" width="150" height="40" as="geometry" />
        </mxCell>
        <mxCell id="f93a37mM0c5N_dRNb5_e-13" value="«Microservicio»&lt;br&gt;&lt;b&gt;Notificaciones&lt;/b&gt;" style="html=1;dropTarget=0;whiteSpace=wrap;labelBackgroundColor=none;sketch=1;curveFitting=1;jiggle=2;" vertex="1" parent="f93a37mM0c5N_dRNb5_e-22">
          <mxGeometry x="429" y="459" width="139" height="40" as="geometry" />
        </mxCell>
        <mxCell id="8MZ9aK_SFHjJ2D7q9cmE-1" value="«Módulo»&lt;br&gt;&lt;b&gt;Reportes&lt;/b&gt;" style="rounded=1;whiteSpace=wrap;html=1;dashed=1;labelBackgroundColor=none;sketch=1;curveFitting=1;jiggle=2;" vertex="1" parent="f93a37mM0c5N_dRNb5_e-22">
          <mxGeometry x="781" y="359" width="150" height="40" as="geometry" />
        </mxCell>
        <mxCell id="QM9bRNvR02Kv4SGXoYES-1" value="Capa de azure" visible="0" parent="0" />
        <mxCell id="QM9bRNvR02Kv4SGXoYES-2" value="" style="ellipse;shape=cloud;whiteSpace=wrap;html=1;labelBackgroundColor=none;sketch=1;curveFitting=1;jiggle=2;" vertex="1" parent="QM9bRNvR02Kv4SGXoYES-1">
          <mxGeometry x="196" y="-293" width="549" height="255" as="geometry" />
        </mxCell>
        <mxCell id="QM9bRNvR02Kv4SGXoYES-3" value="&lt;b&gt;Azure Base de datos &lt;br&gt;Cosmos DB&lt;/b&gt;" style="image;aspect=fixed;html=1;points=[];align=center;fontSize=12;image=img/lib/azure2/databases/Azure_Cosmos_DB.svg;labelBackgroundColor=none;sketch=1;curveFitting=1;jiggle=2;" vertex="1" parent="QM9bRNvR02Kv4SGXoYES-1">
          <mxGeometry x="628" y="-173" width="25" height="25" as="geometry" />
        </mxCell>
        <mxCell id="QM9bRNvR02Kv4SGXoYES-4" value="&lt;b&gt;Azure Service Bus&lt;/b&gt;" style="image;html=1;points=[];align=center;fontSize=12;image=img/lib/azure2/integration/Service_Bus.svg;labelBackgroundColor=none;sketch=1;curveFitting=1;jiggle=2;" vertex="1" parent="QM9bRNvR02Kv4SGXoYES-1">
          <mxGeometry x="425" y="-224" width="25" height="25" as="geometry" />
        </mxCell>
        <mxCell id="QM9bRNvR02Kv4SGXoYES-5" value="&lt;b&gt;Azure container&lt;br&gt;registry&lt;/b&gt;" style="image;aspect=fixed;html=1;points=[];align=center;fontSize=12;image=img/lib/azure2/containers/Container_Registries.svg;labelBackgroundColor=none;sketch=1;curveFitting=1;jiggle=2;" vertex="1" parent="QM9bRNvR02Kv4SGXoYES-1">
          <mxGeometry x="559" y="-241" width="25" height="25" as="geometry" />
        </mxCell>
        <mxCell id="QM9bRNvR02Kv4SGXoYES-6" value="&lt;span style=&quot;color: rgb(51, 51, 51); font-family: &amp;quot;Open Sans&amp;quot;, &amp;quot;Helvetica Neue&amp;quot;, Helvetica, Arial, sans; font-weight: 600; text-align: start; text-wrap: wrap;&quot;&gt;&lt;font style=&quot;font-size: 12px;&quot;&gt;Azure API Management&lt;/font&gt;&lt;/span&gt;" style="image;aspect=fixed;html=1;points=[];align=center;fontSize=12;image=img/lib/azure2/app_services/API_Management_Services.svg;labelBackgroundColor=none;sketch=1;curveFitting=1;jiggle=2;" vertex="1" parent="QM9bRNvR02Kv4SGXoYES-1">
          <mxGeometry x="475.75" y="-162" width="25" height="25" as="geometry" />
        </mxCell>
        <mxCell id="QM9bRNvR02Kv4SGXoYES-7" value="&lt;b&gt;Azure key vault&lt;/b&gt;" style="image;aspect=fixed;html=1;points=[];align=center;fontSize=12;image=img/lib/azure2/security/Key_Vaults.svg;labelBackgroundColor=none;sketch=1;curveFitting=1;jiggle=2;" vertex="1" parent="QM9bRNvR02Kv4SGXoYES-1">
          <mxGeometry x="294" y="-223" width="25" height="25" as="geometry" />
        </mxCell>
        <mxCell id="QM9bRNvR02Kv4SGXoYES-10" value="" style="image;aspect=fixed;html=1;points=[];align=center;fontSize=12;image=img/lib/azure2/management_governance/Monitor.svg;labelBackgroundColor=none;sketch=1;curveFitting=1;jiggle=2;" vertex="1" parent="QM9bRNvR02Kv4SGXoYES-1">
          <mxGeometry x="398" y="-130" width="25" height="25" as="geometry" />
        </mxCell>
        <mxCell id="QM9bRNvR02Kv4SGXoYES-8" value="&lt;b&gt;Azure Storage Blob&lt;/b&gt;" style="verticalLabelPosition=bottom;html=1;verticalAlign=top;align=center;shape=mxgraph.azure.storage_blob;labelBackgroundColor=none;sketch=1;curveFitting=1;jiggle=2;fillColor=none;" vertex="1" parent="QM9bRNvR02Kv4SGXoYES-1">
          <mxGeometry x="310" y="-157" width="25" height="25" as="geometry" />
        </mxCell>
        <mxCell id="QM9bRNvR02Kv4SGXoYES-9" value="" style="image;aspect=fixed;html=1;points=[];align=center;fontSize=12;image=img/lib/azure2/devops/Application_Insights.svg;labelBackgroundColor=none;sketch=1;curveFitting=1;jiggle=2;fontColor=default;" vertex="1" parent="QM9bRNvR02Kv4SGXoYES-1">
          <mxGeometry x="556" y="-114" width="25" height="25" as="geometry" />
        </mxCell>
        <mxCell id="QM9bRNvR02Kv4SGXoYES-11" value="Azure Container &lt;br&gt;Apps Environment" style="image;aspect=fixed;html=1;points=[];align=left;fontSize=12;image=img/lib/azure2/other/Container_App_Environments.svg;fontStyle=1;labelPosition=right;verticalLabelPosition=middle;verticalAlign=middle;labelBackgroundColor=default;sketch=1;curveFitting=1;jiggle=2;" vertex="1" parent="QM9bRNvR02Kv4SGXoYES-1">
          <mxGeometry x="847" y="586" width="41" height="41" as="geometry" />
        </mxCell>
      </root>
    </mxGraphModel>
  </diagram>
  <diagram id="ujOV7S3QhgKs4Kb0JXEV" name="Arquitectura AWS ">
    <mxGraphModel grid="0" page="1" gridSize="10" guides="1" tooltips="1" connect="1" arrows="1" fold="1" pageScale="1" pageWidth="827" pageHeight="1169" math="0" shadow="0">
      <root>
        <mxCell id="0" />
        <mxCell id="1" parent="0" />
        <mxCell id="IwFxpCB7I01p2VWrMusn-5" value="AWS Cloud" style="points=[[0,0],[0.25,0],[0.5,0],[0.75,0],[1,0],[1,0.25],[1,0.5],[1,0.75],[1,1],[0.75,1],[0.5,1],[0.25,1],[0,1],[0,0.75],[0,0.5],[0,0.25]];outlineConnect=0;gradientColor=none;html=1;whiteSpace=wrap;fontSize=12;fontStyle=0;container=1;pointerEvents=0;collapsible=0;recursiveResize=0;shape=mxgraph.aws4.group;grIcon=mxgraph.aws4.group_aws_cloud;strokeColor=#232F3E;fillColor=none;verticalAlign=top;align=left;spacingLeft=30;fontColor=#232F3E;dashed=0;" vertex="1" parent="1">
          <mxGeometry x="20" y="10" width="1080" height="1150" as="geometry" />
        </mxCell>
        <mxCell id="IwFxpCB7I01p2VWrMusn-6" value="" style="fillColor=none;strokeColor=#5A6C86;dashed=1;verticalAlign=top;fontStyle=0;fontColor=#5A6C86;whiteSpace=wrap;html=1;" vertex="1" parent="IwFxpCB7I01p2VWrMusn-5">
          <mxGeometry x="680" y="80" width="170" height="920" as="geometry" />
        </mxCell>
        <mxCell id="auQnOq0atOvDMebEPnGJ-2" style="edgeStyle=orthogonalEdgeStyle;rounded=0;orthogonalLoop=1;jettySize=auto;html=1;dashed=1;" edge="1" parent="IwFxpCB7I01p2VWrMusn-5" source="fIUj5l9jwD6-Ls6QI4vj-2" target="auQnOq0atOvDMebEPnGJ-1">
          <mxGeometry relative="1" as="geometry">
            <Array as="points">
              <mxPoint x="230" y="1113" />
              <mxPoint x="748" y="1113" />
            </Array>
          </mxGeometry>
        </mxCell>
        <mxCell id="fIUj5l9jwD6-Ls6QI4vj-2" value="Api Gateway" style="sketch=0;points=[[0,0,0],[0.25,0,0],[0.5,0,0],[0.75,0,0],[1,0,0],[0,1,0],[0.25,1,0],[0.5,1,0],[0.75,1,0],[1,1,0],[0,0.25,0],[0,0.5,0],[0,0.75,0],[1,0.25,0],[1,0.5,0],[1,0.75,0]];outlineConnect=0;fontColor=#232F3E;fillColor=#E7157B;strokeColor=#ffffff;dashed=0;verticalLabelPosition=bottom;verticalAlign=top;align=center;html=1;fontSize=12;fontStyle=0;aspect=fixed;shape=mxgraph.aws4.resourceIcon;resIcon=mxgraph.aws4.api_gateway;" vertex="1" parent="IwFxpCB7I01p2VWrMusn-5">
          <mxGeometry x="200" y="581" width="78" height="78" as="geometry" />
        </mxCell>
        <mxCell id="IwFxpCB7I01p2VWrMusn-7" value="Amazon Verified&lt;br&gt;&amp;nbsp;Permissions" style="sketch=0;points=[[0,0,0],[0.25,0,0],[0.5,0,0],[0.75,0,0],[1,0,0],[0,1,0],[0.25,1,0],[0.5,1,0],[0.75,1,0],[1,1,0],[0,0.25,0],[0,0.5,0],[0,0.75,0],[1,0.25,0],[1,0.5,0],[1,0.75,0]];outlineConnect=0;fontColor=#232F3E;fillColor=#DD344C;strokeColor=#ffffff;dashed=0;verticalLabelPosition=bottom;verticalAlign=top;align=center;html=1;fontSize=12;fontStyle=0;aspect=fixed;shape=mxgraph.aws4.resourceIcon;resIcon=mxgraph.aws4.verified_permissions;" vertex="1" parent="IwFxpCB7I01p2VWrMusn-5">
          <mxGeometry x="720" y="240" width="78" height="78" as="geometry" />
        </mxCell>
        <mxCell id="yGxJr8XPsSIGfLeu6btV-6" value="DynamoDb" style="sketch=0;points=[[0,0,0],[0.25,0,0],[0.5,0,0],[0.75,0,0],[1,0,0],[0,1,0],[0.25,1,0],[0.5,1,0],[0.75,1,0],[1,1,0],[0,0.25,0],[0,0.5,0],[0,0.75,0],[1,0.25,0],[1,0.5,0],[1,0.75,0]];outlineConnect=0;fontColor=#232F3E;fillColor=#4e69e6;strokeColor=#ffffff;dashed=0;verticalLabelPosition=bottom;verticalAlign=top;align=center;html=1;fontSize=12;fontStyle=0;aspect=fixed;shape=mxgraph.aws4.resourceIcon;resIcon=mxgraph.aws4.dynamodb;" vertex="1" parent="IwFxpCB7I01p2VWrMusn-5">
          <mxGeometry x="720" y="380" width="78" height="78" as="geometry" />
        </mxCell>
        <mxCell id="IwFxpCB7I01p2VWrMusn-10" value="SQLAurora" style="sketch=0;points=[[0,0,0],[0.25,0,0],[0.5,0,0],[0.75,0,0],[1,0,0],[0,1,0],[0.25,1,0],[0.5,1,0],[0.75,1,0],[1,1,0],[0,0.25,0],[0,0.5,0],[0,0.75,0],[1,0.25,0],[1,0.5,0],[1,0.75,0]];outlineConnect=0;fontColor=#232F3E;fillColor=#C925D1;strokeColor=#ffffff;dashed=0;verticalLabelPosition=bottom;verticalAlign=top;align=center;html=1;fontSize=12;fontStyle=0;aspect=fixed;shape=mxgraph.aws4.resourceIcon;resIcon=mxgraph.aws4.rds;" vertex="1" parent="IwFxpCB7I01p2VWrMusn-5">
          <mxGeometry x="720" y="501" width="78" height="78" as="geometry" />
        </mxCell>
        <mxCell id="auQnOq0atOvDMebEPnGJ-1" value="Amazon S3" style="sketch=0;outlineConnect=0;fontColor=#232F3E;gradientColor=none;strokeColor=#ffffff;fillColor=#232F3E;dashed=0;verticalLabelPosition=middle;verticalAlign=bottom;align=center;html=1;whiteSpace=wrap;fontSize=10;fontStyle=1;spacing=3;shape=mxgraph.aws4.productIcon;prIcon=mxgraph.aws4.s3;" vertex="1" parent="IwFxpCB7I01p2VWrMusn-5">
          <mxGeometry x="708" y="646" width="80" height="100" as="geometry" />
        </mxCell>
        <mxCell id="yGxJr8XPsSIGfLeu6btV-1" value="" style="fillColor=none;strokeColor=#5A6C86;dashed=1;verticalAlign=top;fontStyle=0;fontColor=#5A6C86;whiteSpace=wrap;html=1;" vertex="1" parent="1">
          <mxGeometry x="340" y="250" width="310" height="900" as="geometry" />
        </mxCell>
        <mxCell id="fIUj5l9jwD6-Ls6QI4vj-13" value="Event Services" style="fillColor=none;strokeColor=#5A6C86;dashed=1;verticalAlign=top;fontStyle=0;fontColor=#5A6C86;whiteSpace=wrap;html=1;" vertex="1" parent="1">
          <mxGeometry x="350" y="260" width="290" height="310" as="geometry" />
        </mxCell>
        <mxCell id="fIUj5l9jwD6-Ls6QI4vj-4" value="LambdaEvent" style="sketch=0;points=[[0,0,0],[0.25,0,0],[0.5,0,0],[0.75,0,0],[1,0,0],[0,1,0],[0.25,1,0],[0.5,1,0],[0.75,1,0],[1,1,0],[0,0.25,0],[0,0.5,0],[0,0.75,0],[1,0.25,0],[1,0.5,0],[1,0.75,0]];outlineConnect=0;fontColor=#232F3E;fillColor=#ED7100;strokeColor=#ffffff;dashed=0;verticalLabelPosition=bottom;verticalAlign=top;align=center;html=1;fontSize=12;fontStyle=0;aspect=fixed;shape=mxgraph.aws4.resourceIcon;resIcon=mxgraph.aws4.lambda;" vertex="1" parent="1">
          <mxGeometry x="400" y="290" width="78" height="78" as="geometry" />
        </mxCell>
        <mxCell id="fIUj5l9jwD6-Ls6QI4vj-7" value="LambdaEvent&lt;br&gt;ChanceStatus" style="sketch=0;points=[[0,0,0],[0.25,0,0],[0.5,0,0],[0.75,0,0],[1,0,0],[0,1,0],[0.25,1,0],[0.5,1,0],[0.75,1,0],[1,1,0],[0,0.25,0],[0,0.5,0],[0,0.75,0],[1,0.25,0],[1,0.5,0],[1,0.75,0]];outlineConnect=0;fontColor=#232F3E;fillColor=#ED7100;strokeColor=#ffffff;dashed=0;verticalLabelPosition=bottom;verticalAlign=top;align=center;html=1;fontSize=12;fontStyle=0;aspect=fixed;shape=mxgraph.aws4.resourceIcon;resIcon=mxgraph.aws4.lambda;" vertex="1" parent="1">
          <mxGeometry x="520" y="290" width="80" height="80" as="geometry" />
        </mxCell>
        <mxCell id="fIUj5l9jwD6-Ls6QI4vj-14" value="LambdaEvent&lt;br&gt;Create" style="sketch=0;points=[[0,0,0],[0.25,0,0],[0.5,0,0],[0.75,0,0],[1,0,0],[0,1,0],[0.25,1,0],[0.5,1,0],[0.75,1,0],[1,1,0],[0,0.25,0],[0,0.5,0],[0,0.75,0],[1,0.25,0],[1,0.5,0],[1,0.75,0]];outlineConnect=0;fontColor=#232F3E;fillColor=#ED7100;strokeColor=#ffffff;dashed=0;verticalLabelPosition=bottom;verticalAlign=top;align=center;html=1;fontSize=12;fontStyle=0;aspect=fixed;shape=mxgraph.aws4.resourceIcon;resIcon=mxgraph.aws4.lambda;" vertex="1" parent="1">
          <mxGeometry x="520" y="430" width="78" height="78" as="geometry" />
        </mxCell>
        <mxCell id="fIUj5l9jwD6-Ls6QI4vj-15" value="TMO Services" style="fillColor=none;strokeColor=#5A6C86;dashed=1;verticalAlign=top;fontStyle=0;fontColor=#5A6C86;whiteSpace=wrap;html=1;" vertex="1" parent="1">
          <mxGeometry x="350" y="580" width="290" height="180" as="geometry" />
        </mxCell>
        <mxCell id="fIUj5l9jwD6-Ls6QI4vj-16" value="Lambda&lt;div&gt;PhoneConsulting&lt;/div&gt;" style="sketch=0;points=[[0,0,0],[0.25,0,0],[0.5,0,0],[0.75,0,0],[1,0,0],[0,1,0],[0.25,1,0],[0.5,1,0],[0.75,1,0],[1,1,0],[0,0.25,0],[0,0.5,0],[0,0.75,0],[1,0.25,0],[1,0.5,0],[1,0.75,0]];outlineConnect=0;fontColor=#232F3E;fillColor=#ED7100;strokeColor=#ffffff;dashed=0;verticalLabelPosition=bottom;verticalAlign=top;align=center;html=1;fontSize=12;fontStyle=0;aspect=fixed;shape=mxgraph.aws4.resourceIcon;resIcon=mxgraph.aws4.lambda;" vertex="1" parent="1">
          <mxGeometry x="400" y="620" width="78" height="78" as="geometry" />
        </mxCell>
        <mxCell id="fIUj5l9jwD6-Ls6QI4vj-20" value="Proveedor Services" style="fillColor=none;strokeColor=#5A6C86;dashed=1;verticalAlign=top;fontStyle=0;fontColor=#5A6C86;whiteSpace=wrap;html=1;" vertex="1" parent="1">
          <mxGeometry x="350" y="770" width="290" height="180" as="geometry" />
        </mxCell>
        <mxCell id="fIUj5l9jwD6-Ls6QI4vj-21" value="LambdaProvider" style="sketch=0;points=[[0,0,0],[0.25,0,0],[0.5,0,0],[0.75,0,0],[1,0,0],[0,1,0],[0.25,1,0],[0.5,1,0],[0.75,1,0],[1,1,0],[0,0.25,0],[0,0.5,0],[0,0.75,0],[1,0.25,0],[1,0.5,0],[1,0.75,0]];outlineConnect=0;fontColor=#232F3E;fillColor=#ED7100;strokeColor=#ffffff;dashed=0;verticalLabelPosition=bottom;verticalAlign=top;align=center;html=1;fontSize=12;fontStyle=0;aspect=fixed;shape=mxgraph.aws4.resourceIcon;resIcon=mxgraph.aws4.lambda;" vertex="1" parent="1">
          <mxGeometry x="400" y="819" width="78" height="78" as="geometry" />
        </mxCell>
        <mxCell id="fIUj5l9jwD6-Ls6QI4vj-22" value="LambdaProvider&lt;br&gt;Search" style="sketch=0;points=[[0,0,0],[0.25,0,0],[0.5,0,0],[0.75,0,0],[1,0,0],[0,1,0],[0.25,1,0],[0.5,1,0],[0.75,1,0],[1,1,0],[0,0.25,0],[0,0.5,0],[0,0.75,0],[1,0.25,0],[1,0.5,0],[1,0.75,0]];outlineConnect=0;fontColor=#232F3E;fillColor=#ED7100;strokeColor=#ffffff;dashed=0;verticalLabelPosition=bottom;verticalAlign=top;align=center;html=1;fontSize=12;fontStyle=0;aspect=fixed;shape=mxgraph.aws4.resourceIcon;resIcon=mxgraph.aws4.lambda;" vertex="1" parent="1">
          <mxGeometry x="520" y="819" width="78" height="78" as="geometry" />
        </mxCell>
        <mxCell id="fIUj5l9jwD6-Ls6QI4vj-23" value="LambdaEvent&lt;br&gt;Search" style="sketch=0;points=[[0,0,0],[0.25,0,0],[0.5,0,0],[0.75,0,0],[1,0,0],[0,1,0],[0.25,1,0],[0.5,1,0],[0.75,1,0],[1,1,0],[0,0.25,0],[0,0.5,0],[0,0.75,0],[1,0.25,0],[1,0.5,0],[1,0.75,0]];outlineConnect=0;fontColor=#232F3E;fillColor=#ED7100;strokeColor=#ffffff;dashed=0;verticalLabelPosition=bottom;verticalAlign=top;align=center;html=1;fontSize=12;fontStyle=0;aspect=fixed;shape=mxgraph.aws4.resourceIcon;resIcon=mxgraph.aws4.lambda;" vertex="1" parent="1">
          <mxGeometry x="400" y="430" width="78" height="78" as="geometry" />
        </mxCell>
        <mxCell id="fIUj5l9jwD6-Ls6QI4vj-25" value="Lambda&lt;span style=&quot;background-color: initial;&quot;&gt;Phone&lt;br&gt;ConsultingSearch&lt;/span&gt;" style="sketch=0;points=[[0,0,0],[0.25,0,0],[0.5,0,0],[0.75,0,0],[1,0,0],[0,1,0],[0.25,1,0],[0.5,1,0],[0.75,1,0],[1,1,0],[0,0.25,0],[0,0.5,0],[0,0.75,0],[1,0.25,0],[1,0.5,0],[1,0.75,0]];outlineConnect=0;fontColor=#232F3E;fillColor=#ED7100;strokeColor=#ffffff;dashed=0;verticalLabelPosition=bottom;verticalAlign=top;align=center;html=1;fontSize=12;fontStyle=0;aspect=fixed;shape=mxgraph.aws4.resourceIcon;resIcon=mxgraph.aws4.lambda;" vertex="1" parent="1">
          <mxGeometry x="520" y="620" width="78" height="78" as="geometry" />
        </mxCell>
        <mxCell id="fIUj5l9jwD6-Ls6QI4vj-27" style="edgeStyle=orthogonalEdgeStyle;rounded=0;orthogonalLoop=1;jettySize=auto;html=1;entryX=1;entryY=0.5;entryDx=0;entryDy=0;entryPerimeter=0;startArrow=classic;startFill=1;" edge="1" parent="1" source="yGxJr8XPsSIGfLeu6btV-1" target="fIUj5l9jwD6-Ls6QI4vj-2">
          <mxGeometry relative="1" as="geometry" />
        </mxCell>
        <mxCell id="yGxJr8XPsSIGfLeu6btV-2" value="Cognito" style="sketch=0;points=[[0,0,0],[0.25,0,0],[0.5,0,0],[0.75,0,0],[1,0,0],[0,1,0],[0.25,1,0],[0.5,1,0],[0.75,1,0],[1,1,0],[0,0.25,0],[0,0.5,0],[0,0.75,0],[1,0.25,0],[1,0.5,0],[1,0.75,0]];outlineConnect=0;fontColor=#232F3E;fillColor=#DD344C;strokeColor=#ffffff;dashed=0;verticalLabelPosition=bottom;verticalAlign=top;align=center;html=1;fontSize=12;fontStyle=0;aspect=fixed;shape=mxgraph.aws4.resourceIcon;resIcon=mxgraph.aws4.cognito;" vertex="1" parent="1">
          <mxGeometry x="740" y="120" width="78" height="78" as="geometry" />
        </mxCell>
        <mxCell id="yGxJr8XPsSIGfLeu6btV-5" style="edgeStyle=orthogonalEdgeStyle;rounded=0;orthogonalLoop=1;jettySize=auto;html=1;entryX=0.5;entryY=0;entryDx=0;entryDy=0;entryPerimeter=0;exitX=0.5;exitY=0;exitDx=0;exitDy=0;exitPerimeter=0;" edge="1" parent="1" source="fIUj5l9jwD6-Ls6QI4vj-2" target="yGxJr8XPsSIGfLeu6btV-2">
          <mxGeometry relative="1" as="geometry">
            <Array as="points">
              <mxPoint x="259" y="50" />
              <mxPoint x="779" y="50" />
            </Array>
          </mxGeometry>
        </mxCell>
        <mxCell id="yGxJr8XPsSIGfLeu6btV-7" value="" style="fillColor=none;strokeColor=#5A6C86;dashed=1;verticalAlign=top;fontStyle=0;fontColor=#5A6C86;whiteSpace=wrap;html=1;" vertex="1" parent="1">
          <mxGeometry x="880" y="90" width="170" height="920" as="geometry" />
        </mxCell>
        <mxCell id="yGxJr8XPsSIGfLeu6btV-8" value="CloudWhatch" style="sketch=0;points=[[0,0,0],[0.25,0,0],[0.5,0,0],[0.75,0,0],[1,0,0],[0,1,0],[0.25,1,0],[0.5,1,0],[0.75,1,0],[1,1,0],[0,0.25,0],[0,0.5,0],[0,0.75,0],[1,0.25,0],[1,0.5,0],[1,0.75,0]];points=[[0,0,0],[0.25,0,0],[0.5,0,0],[0.75,0,0],[1,0,0],[0,1,0],[0.25,1,0],[0.5,1,0],[0.75,1,0],[1,1,0],[0,0.25,0],[0,0.5,0],[0,0.75,0],[1,0.25,0],[1,0.5,0],[1,0.75,0]];outlineConnect=0;fontColor=#232F3E;fillColor=#E7157B;strokeColor=#ffffff;dashed=0;verticalLabelPosition=bottom;verticalAlign=top;align=center;html=1;fontSize=12;fontStyle=0;aspect=fixed;shape=mxgraph.aws4.resourceIcon;resIcon=mxgraph.aws4.cloudwatch_2;" vertex="1" parent="1">
          <mxGeometry x="920" y="120" width="78" height="78" as="geometry" />
        </mxCell>
        <mxCell id="IwFxpCB7I01p2VWrMusn-2" style="edgeStyle=orthogonalEdgeStyle;rounded=0;orthogonalLoop=1;jettySize=auto;html=1;entryX=0;entryY=0.5;entryDx=0;entryDy=0;entryPerimeter=0;" edge="1" parent="1" source="IwFxpCB7I01p2VWrMusn-1" target="fIUj5l9jwD6-Ls6QI4vj-2">
          <mxGeometry relative="1" as="geometry" />
        </mxCell>
        <mxCell id="IwFxpCB7I01p2VWrMusn-1" value="Client Amplify" style="sketch=0;points=[[0,0,0],[0.25,0,0],[0.5,0,0],[0.75,0,0],[1,0,0],[0,1,0],[0.25,1,0],[0.5,1,0],[0.75,1,0],[1,1,0],[0,0.25,0],[0,0.5,0],[0,0.75,0],[1,0.25,0],[1,0.5,0],[1,0.75,0]];outlineConnect=0;fontColor=#232F3E;fillColor=#DD344C;strokeColor=#ffffff;dashed=0;verticalLabelPosition=bottom;verticalAlign=top;align=center;html=1;fontSize=12;fontStyle=0;aspect=fixed;shape=mxgraph.aws4.resourceIcon;resIcon=mxgraph.aws4.amplify;" vertex="1" parent="1">
          <mxGeometry x="40" y="399" width="82" height="82" as="geometry" />
        </mxCell>
        <mxCell id="IwFxpCB7I01p2VWrMusn-3" value="Seguridad" style="fillColor=none;strokeColor=#5A6C86;dashed=1;verticalAlign=top;fontStyle=0;fontColor=#5A6C86;whiteSpace=wrap;html=1;" vertex="1" parent="1">
          <mxGeometry x="340" y="90" width="310" height="150" as="geometry" />
        </mxCell>
        <mxCell id="IwFxpCB7I01p2VWrMusn-4" value="Lambda&lt;br&gt;Authorizer" style="sketch=0;points=[[0,0,0],[0.25,0,0],[0.5,0,0],[0.75,0,0],[1,0,0],[0,1,0],[0.25,1,0],[0.5,1,0],[0.75,1,0],[1,1,0],[0,0.25,0],[0,0.5,0],[0,0.75,0],[1,0.25,0],[1,0.5,0],[1,0.75,0]];outlineConnect=0;fontColor=#232F3E;fillColor=#ED7100;strokeColor=#ffffff;dashed=0;verticalLabelPosition=bottom;verticalAlign=top;align=center;html=1;fontSize=12;fontStyle=0;aspect=fixed;shape=mxgraph.aws4.resourceIcon;resIcon=mxgraph.aws4.lambda;" vertex="1" parent="1">
          <mxGeometry x="460" y="120" width="78" height="78" as="geometry" />
        </mxCell>
        <mxCell id="IwFxpCB7I01p2VWrMusn-8" style="edgeStyle=orthogonalEdgeStyle;rounded=0;orthogonalLoop=1;jettySize=auto;html=1;entryX=0;entryY=0.5;entryDx=0;entryDy=0;entryPerimeter=0;" edge="1" parent="1" source="IwFxpCB7I01p2VWrMusn-4" target="IwFxpCB7I01p2VWrMusn-7">
          <mxGeometry relative="1" as="geometry">
            <Array as="points">
              <mxPoint x="670" y="159" />
              <mxPoint x="670" y="289" />
            </Array>
          </mxGeometry>
        </mxCell>
        <mxCell id="IwFxpCB7I01p2VWrMusn-9" style="edgeStyle=orthogonalEdgeStyle;rounded=0;orthogonalLoop=1;jettySize=auto;html=1;exitX=0.75;exitY=0;exitDx=0;exitDy=0;exitPerimeter=0;entryX=0;entryY=0.5;entryDx=0;entryDy=0;entryPerimeter=0;" edge="1" parent="1" source="fIUj5l9jwD6-Ls6QI4vj-2" target="IwFxpCB7I01p2VWrMusn-4">
          <mxGeometry relative="1" as="geometry" />
        </mxCell>
        <mxCell id="IwFxpCB7I01p2VWrMusn-15" value="Vaucher Services" style="fillColor=none;strokeColor=#5A6C86;dashed=1;verticalAlign=top;fontStyle=0;fontColor=#5A6C86;whiteSpace=wrap;html=1;" vertex="1" parent="1">
          <mxGeometry x="350" y="960" width="290" height="180" as="geometry" />
        </mxCell>
        <mxCell id="IwFxpCB7I01p2VWrMusn-16" value="LambdaVaucherSearch" style="sketch=0;points=[[0,0,0],[0.25,0,0],[0.5,0,0],[0.75,0,0],[1,0,0],[0,1,0],[0.25,1,0],[0.5,1,0],[0.75,1,0],[1,1,0],[0,0.25,0],[0,0.5,0],[0,0.75,0],[1,0.25,0],[1,0.5,0],[1,0.75,0]];outlineConnect=0;fontColor=#232F3E;fillColor=#ED7100;strokeColor=#ffffff;dashed=0;verticalLabelPosition=bottom;verticalAlign=top;align=center;html=1;fontSize=12;fontStyle=0;aspect=fixed;shape=mxgraph.aws4.resourceIcon;resIcon=mxgraph.aws4.lambda;" vertex="1" parent="1">
          <mxGeometry x="460" y="1009" width="78" height="78" as="geometry" />
        </mxCell>
        <mxCell id="IwFxpCB7I01p2VWrMusn-18" value="Secrets Manager" style="sketch=0;points=[[0,0,0],[0.25,0,0],[0.5,0,0],[0.75,0,0],[1,0,0],[0,1,0],[0.25,1,0],[0.5,1,0],[0.75,1,0],[1,1,0],[0,0.25,0],[0,0.5,0],[0,0.75,0],[1,0.25,0],[1,0.5,0],[1,0.75,0]];outlineConnect=0;fontColor=#232F3E;fillColor=#DD344C;strokeColor=#ffffff;dashed=0;verticalLabelPosition=bottom;verticalAlign=top;align=center;html=1;fontSize=12;fontStyle=0;aspect=fixed;shape=mxgraph.aws4.resourceIcon;resIcon=mxgraph.aws4.secrets_manager;" vertex="1" parent="1">
          <mxGeometry x="920" y="240" width="78" height="78" as="geometry" />
        </mxCell>
      </root>
    </mxGraphModel>
  </diagram>
</mxfile>
